<?xml version="1.0" encoding="UTF-8" standalone="no"?>
<!-- Created with Inkscape (http://www.inkscape.org/) -->

<svg
   xmlns:dc="http://purl.org/dc/elements/1.1/"
   xmlns:cc="http://creativecommons.org/ns#"
   xmlns:rdf="http://www.w3.org/1999/02/22-rdf-syntax-ns#"
   xmlns:svg="http://www.w3.org/2000/svg"
   xmlns="http://www.w3.org/2000/svg"
   xmlns:sodipodi="http://sodipodi.sourceforge.net/DTD/sodipodi-0.dtd"
   xmlns:inkscape="http://www.inkscape.org/namespaces/inkscape"
   width="130.77975mm"
   height="130.77975mm"
   viewBox="0 0 130.77975 130.77975"
   version="1.1"
   id="svg8"
   inkscape:version="0.92.4 (5da689c313, 2019-01-14)"
   sodipodi:docname="symbol-3-2.svg">
  <defs
     id="defs2">
    <inkscape:path-effect
       effect="spiro"
       id="path-effect838"
       is_visible="true" />
  </defs>
  <sodipodi:namedview
     id="base"
     pagecolor="#ffffff"
     bordercolor="#666666"
     borderopacity="1.0"
     inkscape:pageopacity="0.0"
     inkscape:pageshadow="2"
     inkscape:zoom="1.665029"
     inkscape:cx="247.14284"
     inkscape:cy="247.14284"
     inkscape:document-units="mm"
     inkscape:current-layer="layer1"
     showgrid="false"
     inkscape:window-width="1920"
     inkscape:window-height="1046"
     inkscape:window-x="-11"
     inkscape:window-y="-11"
     inkscape:window-maximized="1"
     showguides="true"
     inkscape:guide-bbox="true"
     inkscape:snap-global="false"
     inkscape:snap-bbox="true"
     inkscape:bbox-paths="true"
     inkscape:bbox-nodes="true"
     inkscape:snap-bbox-edge-midpoints="true"
     inkscape:snap-bbox-midpoints="true"
     inkscape:object-paths="true"
     inkscape:snap-intersection-paths="true"
     inkscape:snap-smooth-nodes="true"
     inkscape:snap-midpoints="true"
     inkscape:snap-object-midpoints="true"
     inkscape:snap-center="true"
     inkscape:snap-page="true" />
  <metadata
     id="metadata5">
    <rdf:RDF>
      <cc:Work
         rdf:about="">
        <dc:format>image/svg+xml</dc:format>
        <dc:type
           rdf:resource="http://purl.org/dc/dcmitype/StillImage" />
        <dc:title></dc:title>
      </cc:Work>
    </rdf:RDF>
  </metadata>
  <g
     inkscape:label="Layer 1"
     inkscape:groupmode="layer"
     id="layer1"
     transform="translate(-23.056549,-63.032734)">
    <path
       inkscape:connector-curvature="0"
       id="path900"
       d="m 56.47026,65.22947 a 1.269409,1.269409 0 0 0 -0.12725,2.67e-4 1.269409,1.269409 0 0 0 -1.18774,1.080951 c -0.26717,1.632448 -0.28409,3.806085 -0.13801,5.628313 0.0393,0.489265 0.0887,0.945734 0.1548,1.36798 -0.24052,-0.01746 -0.48121,-0.03283 -0.72204,-0.04402 -1.76943,-0.08337 -3.54152,0.0033 -5.30534,0.264217 -0.49096,-0.702426 -1.08126,-1.886925 -1.48132,-3.028771 -0.26238,-0.748888 -0.47077,-1.484084 -0.60476,-2.063799 -0.134,-0.579699 -0.15872,-1.143166 -0.17159,-0.964722 a 1.269409,1.269409 0 0 0 -1.31997,-1.377428 1.269409,1.269409 0 0 0 -1.21267,1.194824 c -0.0452,0.625917 0.0738,1.037805 0.23115,1.718504 0.15733,0.680699 0.38748,1.491409 0.68215,2.332451 0.32262,0.920808 0.68964,1.870803 1.16911,2.729412 -1.93059,0.486642 -3.84393,1.189026 -5.72539,2.114687 -1.53302,-2.272892 -2.04797,-2.541001 -3.29534,-5.490566 a 1.269409,1.269409 0 0 0 -1.19508,-0.791306 1.269409,1.269409 0 0 0 -1.14314,1.779902 c 1.28745,3.044325 2.00044,3.685337 3.39215,5.72015 -2.10442,1.255151 -4.1597,2.801935 -6.14439,4.65152 -1.53904,-1.379783 -2.77381,-2.466907 -3.98799,-5.288548 A 1.269409,1.269409 0 0 0 27.13779,75.97899 1.269409,1.269409 0 0 0 26.0062,77.767028 c 1.35399,3.146545 2.9625,4.667342 4.51482,6.071718 -1.24062,1.302648 -2.44969,2.729695 -3.6212,4.285777 a 1.4725144,1.4725144 0 0 0 0.0664,1.852325 c 15.62671,17.948592 42.24748,14.877922 54.451291,-0.03383 a 1.4725144,1.4725144 0 0 0 -0.0307,-1.90085 c -1.70507,-1.95457 -3.49464,-3.742466 -5.352301,-5.34784 a 1.269409,1.269409 0 0 0 0.18682,-0.452071 c 0.36545,-1.764138 0.29258,-1.765859 1.574731,-5.771306 a 1.269409,1.269409 0 0 0 -1.209771,-1.673905 1.269409,1.269409 0 0 0 -1.20794,0.900442 c -1.06259,3.319519 -1.2546,4.132009 -1.48396,5.253924 -2.09105,-1.605667 -4.2569,-2.982744 -6.47629,-4.1113 0.19866,-1.654401 -0.23373,-2.514171 1.34333,-6.697736 a 1.269409,1.269409 0 0 0 -1.25045,-1.732413 1.269409,1.269409 0 0 0 -1.1245,0.836949 c -1.33021,3.528753 -1.41929,5.26013 -1.45509,6.442716 -2.28415,-0.952359 -4.61465,-1.642589 -6.97059,-2.043851 a 1.269409,1.269409 0 0 0 -0.14404,-0.103123 c -0.0984,-0.372459 -0.20723,-1.026645 -0.26971,-1.805872 -0.13063,-1.62944 -0.0945,-3.748371 0.11308,-5.016487 A 1.269409,1.269409 0 0 0 56.47029,65.229537 Z M 46.44623,77.100828 A 11.715358,11.715358 0 0 0 42.46165,85.890155 11.715358,11.715358 0 0 0 54.1769,97.605668 11.715358,11.715358 0 0 0 65.89214,85.890155 11.715358,11.715358 0 0 0 62.86127,78.046922 c 5.42789,2.077331 10.69027,5.828886 15.404651,10.973806 C 67.13149,101.37232 44.20991,104.05177 30.05322,88.928668 35.14742,82.508489 40.72727,78.716764 46.44623,77.100864 Z m 7.73067,5.204079 a 3.5852187,3.5852187 0 0 1 3.58525,3.585248 3.5852187,3.5852187 0 0 1 -3.58525,3.585255 3.5852187,3.5852187 0 0 1 -3.58526,-3.585255 3.5852187,3.5852187 0 0 1 3.58526,-3.585248 z"
       style="color:#000000;font-style:normal;font-variant:normal;font-weight:normal;font-stretch:normal;font-size:medium;line-height:normal;font-family:sans-serif;font-variant-ligatures:normal;font-variant-position:normal;font-variant-caps:normal;font-variant-numeric:normal;font-variant-alternates:normal;font-feature-settings:normal;text-indent:0;text-align:start;text-decoration:none;text-decoration-line:none;text-decoration-style:solid;text-decoration-color:#000000;letter-spacing:normal;word-spacing:normal;text-transform:none;writing-mode:lr-tb;direction:ltr;text-orientation:mixed;dominant-baseline:auto;baseline-shift:baseline;text-anchor:start;white-space:normal;shape-padding:0;clip-rule:nonzero;display:inline;overflow:visible;visibility:visible;opacity:1;isolation:auto;mix-blend-mode:normal;color-interpolation:sRGB;color-interpolation-filters:linearRGB;solid-color:#000000;solid-opacity:1;vector-effect:none;fill:#595959;fill-opacity:1;fill-rule:nonzero;stroke:none;stroke-width:2.94473481;stroke-linecap:round;stroke-linejoin:round;stroke-miterlimit:4;stroke-dasharray:none;stroke-dashoffset:0;stroke-opacity:1;paint-order:stroke fill markers;color-rendering:auto;image-rendering:auto;shape-rendering:auto;text-rendering:auto;enable-background:accumulate" />
    <g
       id="g1043"
       transform="matrix(0.76683335,-0.31495016,-0.31495016,-0.76683335,127.20228,190.47167)">
      <rect
         ry="4.8658328"
         y="87.558266"
         x="-18.219851"
         height="37.304722"
         width="9.6632719"
         id="rect1039"
         style="opacity:1;vector-effect:none;fill:#595959;fill-opacity:1;stroke:none;stroke-width:3.04468894;stroke-linecap:round;stroke-linejoin:miter;stroke-miterlimit:4;stroke-dasharray:none;stroke-dashoffset:0;stroke-opacity:1;paint-order:stroke fill markers" />
      <path
         inkscape:transform-center-y="-4.085978"
         d="m 0.80498273,98.72228 c -1.55696675,2.69675 -26.75151973,2.69674 -28.30848573,-10e-7 -1.556967,-2.696745 11.040309,-24.515868 14.154243,-24.515868 3.113933,0 15.7112095,21.819123 14.15424273,24.515869 z"
         inkscape:randomized="0"
         inkscape:rounded="0.11"
         inkscape:flatsided="true"
         sodipodi:arg2="1.5426278"
         sodipodi:arg1="0.52359878"
         sodipodi:r2="11.931056"
         sodipodi:r1="16.343912"
         sodipodi:cy="90.550323"
         sodipodi:cx="-13.34926"
         sodipodi:sides="3"
         id="path1041"
         style="opacity:1;vector-effect:none;fill:#595959;fill-opacity:1;stroke:none;stroke-width:3.53982997;stroke-linecap:round;stroke-linejoin:miter;stroke-miterlimit:4;stroke-dasharray:none;stroke-dashoffset:0;stroke-opacity:1;paint-order:stroke fill markers"
         sodipodi:type="star" />
    </g>
    <g
       transform="matrix(-1.3487405,0,0,1.3487405,196.0149,-47.64177)"
       id="g1581" />
    <g
       id="g1728"
       transform="translate(-2.0258472)">
      <path
         inkscape:connector-curvature="0"
         id="rect1557"
         d="m 100.35114,140.17074 c -3.534602,0 -6.41188,2.87728 -6.41188,6.41188 v 45.2808 h 2.024987 v -45.2808 c 0,-2.44789 1.938987,-4.38689 4.386893,-4.38689 h 42.73335 c 2.44789,0 4.38759,1.939 4.38759,4.38689 v 45.2808 h 2.02429 v -45.2808 c 0,-3.5346 -2.87728,-6.41188 -6.41188,-6.41188 z"
         style="color:#000000;font-style:normal;font-variant:normal;font-weight:normal;font-stretch:normal;font-size:medium;line-height:normal;font-family:sans-serif;font-variant-ligatures:normal;font-variant-position:normal;font-variant-caps:normal;font-variant-numeric:normal;font-variant-alternates:normal;font-feature-settings:normal;text-indent:0;text-align:start;text-decoration:none;text-decoration-line:none;text-decoration-style:solid;text-decoration-color:#000000;letter-spacing:normal;word-spacing:normal;text-transform:none;writing-mode:lr-tb;direction:ltr;text-orientation:mixed;dominant-baseline:auto;baseline-shift:baseline;text-anchor:start;white-space:normal;shape-padding:0;clip-rule:nonzero;display:inline;overflow:visible;visibility:visible;opacity:1;isolation:auto;mix-blend-mode:normal;color-interpolation:sRGB;color-interpolation-filters:linearRGB;solid-color:#000000;solid-opacity:1;vector-effect:none;fill:#595959;fill-opacity:1;fill-rule:nonzero;stroke:none;stroke-width:2.0247643;stroke-linecap:round;stroke-linejoin:round;stroke-miterlimit:4;stroke-dasharray:none;stroke-dashoffset:0;stroke-opacity:1;paint-order:fill markers stroke;color-rendering:auto;image-rendering:auto;shape-rendering:auto;text-rendering:auto;enable-background:accumulate" />
      <rect
         style="opacity:1;vector-effect:none;fill:#595959;fill-opacity:1;stroke:none;stroke-width:4.24517822;stroke-linecap:round;stroke-linejoin:miter;stroke-miterlimit:4;stroke-dasharray:none;stroke-dashoffset:0;stroke-opacity:1;paint-order:stroke fill markers"
         id="rect1561"
         width="11.625956"
         height="4.3846674"
         x="37.842377"
         y="158.42937"
         ry="2.1877236"
         rx="2.1877236"
         transform="matrix(-1.3487405,0,0,1.3487405,196.0149,-47.641771)" />
      <rect
         rx="2.1877236"
         ry="2.1877236"
         y="158.42937"
         x="50.252438"
         height="4.3846674"
         width="9.806632"
         id="rect1563"
         style="opacity:1;vector-effect:none;fill:#595959;fill-opacity:1;stroke:none;stroke-width:4.24517822;stroke-linecap:round;stroke-linejoin:miter;stroke-miterlimit:4;stroke-dasharray:none;stroke-dashoffset:0;stroke-opacity:1;paint-order:stroke fill markers"
         transform="matrix(-1.3487405,0,0,1.3487405,196.0149,-47.641771)" />
      <rect
         rx="2.1877236"
         ry="2.1877236"
         y="158.42937"
         x="60.805443"
         height="4.3846674"
         width="11.625956"
         id="rect1565"
         style="opacity:1;vector-effect:none;fill:#595959;fill-opacity:1;stroke:none;stroke-width:4.24517822;stroke-linecap:round;stroke-linejoin:miter;stroke-miterlimit:4;stroke-dasharray:none;stroke-dashoffset:0;stroke-opacity:1;paint-order:stroke fill markers"
         transform="matrix(-1.3487405,0,0,1.3487405,196.0149,-47.641771)" />
      <rect
         rx="2.1877236"
         ry="2.1877236"
         y="163.71846"
         x="37.842377"
         height="4.3846645"
         width="8.1033945"
         id="rect1567"
         style="opacity:1;vector-effect:none;fill:#595959;fill-opacity:1;stroke:none;stroke-width:4.24517822;stroke-linecap:round;stroke-linejoin:miter;stroke-miterlimit:4;stroke-dasharray:none;stroke-dashoffset:0;stroke-opacity:1;paint-order:stroke fill markers"
         transform="matrix(-1.3487405,0,0,1.3487405,196.0149,-47.641771)" />
      <rect
         style="opacity:1;vector-effect:none;fill:#595959;fill-opacity:1;stroke:none;stroke-width:4.24517822;stroke-linecap:round;stroke-linejoin:miter;stroke-miterlimit:4;stroke-dasharray:none;stroke-dashoffset:0;stroke-opacity:1;paint-order:stroke fill markers"
         id="rect1569"
         width="15.933465"
         height="4.3846645"
         x="46.658699"
         y="163.71846"
         ry="2.1877236"
         rx="2.1877236"
         transform="matrix(-1.3487405,0,0,1.3487405,196.0149,-47.641771)" />
      <rect
         style="opacity:1;vector-effect:none;fill:#595959;fill-opacity:1;stroke:none;stroke-width:4.24517822;stroke-linecap:round;stroke-linejoin:miter;stroke-miterlimit:4;stroke-dasharray:none;stroke-dashoffset:0;stroke-opacity:1;paint-order:stroke fill markers"
         id="rect1571"
         width="9.026722"
         height="4.3846645"
         x="63.404671"
         y="163.71846"
         ry="2.106791"
         rx="2.1877236"
         transform="matrix(-1.3487405,0,0,1.3487405,196.0149,-47.641771)" />
      <rect
         style="opacity:1;vector-effect:none;fill:#595959;fill-opacity:1;stroke:none;stroke-width:4.24517822;stroke-linecap:round;stroke-linejoin:miter;stroke-miterlimit:4;stroke-dasharray:none;stroke-dashoffset:0;stroke-opacity:1;paint-order:stroke fill markers"
         id="rect1573"
         width="6.0158453"
         height="4.3846607"
         x="37.842377"
         y="169.12711"
         ry="2.1877236"
         rx="2.1877236"
         transform="matrix(-1.3487405,0,0,1.3487405,196.0149,-47.641771)" />
      <rect
         rx="2.1877236"
         ry="2.1877236"
         y="169.12711"
         x="44.66674"
         height="4.3846645"
         width="13.661234"
         id="rect1575"
         style="opacity:1;vector-effect:none;fill:#595959;fill-opacity:1;stroke:none;stroke-width:4.24517822;stroke-linecap:round;stroke-linejoin:miter;stroke-miterlimit:4;stroke-dasharray:none;stroke-dashoffset:0;stroke-opacity:1;paint-order:stroke fill markers"
         transform="matrix(-1.3487405,0,0,1.3487405,196.0149,-47.641771)" />
      <rect
         rx="2.1877236"
         ry="2.1877236"
         y="169.12711"
         x="59.079605"
         height="4.3846645"
         width="13.351789"
         id="rect1577"
         style="opacity:1;vector-effect:none;fill:#595959;fill-opacity:1;stroke:none;stroke-width:4.24517822;stroke-linecap:round;stroke-linejoin:miter;stroke-miterlimit:4;stroke-dasharray:none;stroke-dashoffset:0;stroke-opacity:1;paint-order:stroke fill markers"
         transform="matrix(-1.3487405,0,0,1.3487405,196.0149,-47.641771)" />
      <circle
         style="opacity:1;vector-effect:none;fill:#595959;fill-opacity:1;stroke:none;stroke-width:4.04952812;stroke-linecap:round;stroke-linejoin:round;stroke-miterlimit:4;stroke-dasharray:none;stroke-dashoffset:0;stroke-opacity:1;paint-order:stroke fill markers"
         id="circle1583"
         cx="121.71786"
         cy="153.45654"
         r="8.472683" />
      <path
         style="color:#000000;font-style:normal;font-variant:normal;font-weight:normal;font-stretch:normal;font-size:medium;line-height:normal;font-family:sans-serif;font-variant-ligatures:normal;font-variant-position:normal;font-variant-caps:normal;font-variant-numeric:normal;font-variant-alternates:normal;font-feature-settings:normal;text-indent:0;text-align:start;text-decoration:none;text-decoration-line:none;text-decoration-style:solid;text-decoration-color:#000000;letter-spacing:normal;word-spacing:normal;text-transform:none;writing-mode:lr-tb;direction:ltr;text-orientation:mixed;dominant-baseline:auto;baseline-shift:baseline;text-anchor:start;white-space:normal;shape-padding:0;clip-rule:nonzero;display:inline;overflow:visible;visibility:visible;opacity:1;isolation:auto;mix-blend-mode:normal;color-interpolation:sRGB;color-interpolation-filters:linearRGB;solid-color:#000000;solid-opacity:1;vector-effect:none;fill:#595959;fill-opacity:1;fill-rule:nonzero;stroke:none;stroke-width:2.0247643;stroke-linecap:round;stroke-linejoin:round;stroke-miterlimit:4;stroke-dasharray:none;stroke-dashoffset:0;stroke-opacity:1;paint-order:fill markers stroke;color-rendering:auto;image-rendering:auto;shape-rendering:auto;text-rendering:auto;enable-background:accumulate"
         d="m 37.860059,140.17074 c -3.534604,0 -6.411882,2.87728 -6.411882,6.41188 v 45.2808 h 2.024987 v -45.2808 c 0,-2.44789 1.938987,-4.38689 4.386895,-4.38689 h 42.733346 c 2.447892,0 4.387587,1.939 4.387587,4.38689 v 45.2808 h 2.024292 v -45.2808 c 0,-3.5346 -2.877281,-6.41188 -6.411879,-6.41188 z"
         id="path1669"
         inkscape:connector-curvature="0" />
      <g
         transform="matrix(1.3848636,0,0,1.3848636,-18.033615,-53.364158)"
         id="g1691">
        <rect
           rx="2.1306586"
           ry="2.1306586"
           y="158.42896"
           x="38.89645"
           height="4.2702966"
           width="11.322701"
           id="rect1671"
           style="opacity:1;vector-effect:none;fill:#595959;fill-opacity:1;stroke:none;stroke-width:4.13444614;stroke-linecap:round;stroke-linejoin:miter;stroke-miterlimit:4;stroke-dasharray:none;stroke-dashoffset:0;stroke-opacity:1;paint-order:stroke fill markers" />
        <rect
           style="opacity:1;vector-effect:none;fill:#595959;fill-opacity:1;stroke:none;stroke-width:4.13444614;stroke-linecap:round;stroke-linejoin:miter;stroke-miterlimit:4;stroke-dasharray:none;stroke-dashoffset:0;stroke-opacity:1;paint-order:stroke fill markers"
           id="rect1673"
           width="9.5508337"
           height="4.2702966"
           x="50.982803"
           y="158.42896"
           ry="2.1306586"
           rx="2.1306586" />
        <rect
           style="opacity:1;vector-effect:none;fill:#595959;fill-opacity:1;stroke:none;stroke-width:4.13444614;stroke-linecap:round;stroke-linejoin:miter;stroke-miterlimit:4;stroke-dasharray:none;stroke-dashoffset:0;stroke-opacity:1;paint-order:stroke fill markers"
           id="rect1675"
           width="11.322701"
           height="4.2702966"
           x="61.26054"
           y="158.42896"
           ry="2.1306586"
           rx="2.1306586" />
        <rect
           style="opacity:1;vector-effect:none;fill:#595959;fill-opacity:1;stroke:none;stroke-width:4.13444614;stroke-linecap:round;stroke-linejoin:miter;stroke-miterlimit:4;stroke-dasharray:none;stroke-dashoffset:0;stroke-opacity:1;paint-order:stroke fill markers"
           id="rect1677"
           width="7.892024"
           height="4.2702942"
           x="38.89645"
           y="163.58009"
           ry="2.1306586"
           rx="2.1306586" />
        <rect
           rx="2.1306586"
           ry="2.1306586"
           y="163.58009"
           x="47.899353"
           height="4.2702942"
           width="9.7694607"
           id="rect1679"
           style="opacity:1;vector-effect:none;fill:#595959;fill-opacity:1;stroke:none;stroke-width:4.13444614;stroke-linecap:round;stroke-linejoin:miter;stroke-miterlimit:4;stroke-dasharray:none;stroke-dashoffset:0;stroke-opacity:1;paint-order:stroke fill markers" />
        <rect
           rx="2.1306586"
           ry="2.1306586"
           y="163.58009"
           x="58.626747"
           height="4.2702942"
           width="13.956486"
           id="rect1681"
           style="opacity:1;vector-effect:none;fill:#595959;fill-opacity:1;stroke:none;stroke-width:4.13444614;stroke-linecap:round;stroke-linejoin:miter;stroke-miterlimit:4;stroke-dasharray:none;stroke-dashoffset:0;stroke-opacity:1;paint-order:stroke fill markers" />
        <rect
           rx="2.1306586"
           ry="2.1306586"
           y="168.84766"
           x="38.89645"
           height="4.2702904"
           width="5.8589268"
           id="rect1683"
           style="opacity:1;vector-effect:none;fill:#595959;fill-opacity:1;stroke:none;stroke-width:4.13444614;stroke-linecap:round;stroke-linejoin:miter;stroke-miterlimit:4;stroke-dasharray:none;stroke-dashoffset:0;stroke-opacity:1;paint-order:stroke fill markers" />
        <rect
           style="opacity:1;vector-effect:none;fill:#595959;fill-opacity:1;stroke:none;stroke-width:4.13444614;stroke-linecap:round;stroke-linejoin:miter;stroke-miterlimit:4;stroke-dasharray:none;stroke-dashoffset:0;stroke-opacity:1;paint-order:stroke fill markers"
           id="rect1685"
           width="10.139112"
           height="4.2702904"
           x="45.542805"
           y="168.84766"
           ry="2.1306586"
           rx="2.1306586" />
        <rect
           style="opacity:1;vector-effect:none;fill:#595959;fill-opacity:1;stroke:none;stroke-width:4.13444614;stroke-linecap:round;stroke-linejoin:miter;stroke-miterlimit:4;stroke-dasharray:none;stroke-dashoffset:0;stroke-opacity:1;paint-order:stroke fill markers"
           id="rect1687"
           width="8.0882244"
           height="4.2702904"
           x="64.49501"
           y="168.84766"
           ry="2.1306586"
           rx="2.1306586" />
        <rect
           rx="2.1306586"
           ry="2.1306586"
           y="168.84766"
           x="56.493816"
           height="4.2702904"
           width="7.3205004"
           id="rect1689"
           style="opacity:1;vector-effect:none;fill:#595959;fill-opacity:1;stroke:none;stroke-width:4.13444614;stroke-linecap:round;stroke-linejoin:miter;stroke-miterlimit:4;stroke-dasharray:none;stroke-dashoffset:0;stroke-opacity:1;paint-order:stroke fill markers" />
      </g>
      <circle
         r="8.472683"
         cy="153.45654"
         cx="59.22678"
         id="circle1693"
         style="opacity:1;vector-effect:none;fill:#595959;fill-opacity:1;stroke:none;stroke-width:4.04952812;stroke-linecap:round;stroke-linejoin:round;stroke-miterlimit:4;stroke-dasharray:none;stroke-dashoffset:0;stroke-opacity:1;paint-order:stroke fill markers" />
    </g>
  </g>
</svg>
