<?xml version="1.0" encoding="UTF-8" standalone="no"?>
<!-- Created with Inkscape (http://www.inkscape.org/) -->

<svg
   xmlns:dc="http://purl.org/dc/elements/1.1/"
   xmlns:cc="http://creativecommons.org/ns#"
   xmlns:rdf="http://www.w3.org/1999/02/22-rdf-syntax-ns#"
   xmlns:svg="http://www.w3.org/2000/svg"
   xmlns="http://www.w3.org/2000/svg"
   xmlns:sodipodi="http://sodipodi.sourceforge.net/DTD/sodipodi-0.dtd"
   xmlns:inkscape="http://www.inkscape.org/namespaces/inkscape"
   width="130.77975mm"
   height="130.77975mm"
   viewBox="0 0 130.77975 130.77975"
   version="1.1"
   id="svg8"
   inkscape:version="0.92.4 (5da689c313, 2019-01-14)"
   sodipodi:docname="symbol-3-1.svg">
  <defs
     id="defs2">
    <inkscape:path-effect
       effect="spiro"
       id="path-effect838"
       is_visible="true" />
  </defs>
  <sodipodi:namedview
     id="base"
     pagecolor="#ffffff"
     bordercolor="#666666"
     borderopacity="1.0"
     inkscape:pageopacity="0.0"
     inkscape:pageshadow="2"
     inkscape:zoom="0.38125936"
     inkscape:cx="-38.936424"
     inkscape:cy="275.52704"
     inkscape:document-units="mm"
     inkscape:current-layer="layer1"
     showgrid="false"
     inkscape:window-width="1920"
     inkscape:window-height="1046"
     inkscape:window-x="-11"
     inkscape:window-y="-11"
     inkscape:window-maximized="1"
     showguides="true"
     inkscape:guide-bbox="true"
     inkscape:snap-global="true"
     inkscape:snap-bbox="true"
     inkscape:bbox-paths="true"
     inkscape:bbox-nodes="true"
     inkscape:snap-bbox-edge-midpoints="true"
     inkscape:snap-bbox-midpoints="true"
     inkscape:object-paths="true"
     inkscape:snap-intersection-paths="true"
     inkscape:snap-smooth-nodes="true"
     inkscape:snap-midpoints="true"
     inkscape:snap-object-midpoints="true"
     inkscape:snap-center="true"
     inkscape:snap-page="true" />
  <metadata
     id="metadata5">
    <rdf:RDF>
      <cc:Work
         rdf:about="">
        <dc:format>image/svg+xml</dc:format>
        <dc:type
           rdf:resource="http://purl.org/dc/dcmitype/StillImage" />
        <dc:title></dc:title>
      </cc:Work>
    </rdf:RDF>
  </metadata>
  <g
     inkscape:label="Layer 1"
     inkscape:groupmode="layer"
     id="layer1"
     transform="translate(-23.056549,-63.032734)">
    <path
       inkscape:connector-curvature="0"
       id="path900"
       d="m 56.47026,65.22947 a 1.269409,1.269409 0 0 0 -0.12725,2.67e-4 1.269409,1.269409 0 0 0 -1.18774,1.080951 c -0.26717,1.632448 -0.28409,3.806085 -0.13801,5.628313 0.0393,0.489265 0.0887,0.945734 0.1548,1.36798 -0.24052,-0.01746 -0.48121,-0.03283 -0.72204,-0.04402 -1.76943,-0.08337 -3.54152,0.0033 -5.30534,0.264217 -0.49096,-0.702426 -1.08126,-1.886925 -1.48132,-3.028771 -0.26238,-0.748888 -0.47077,-1.484084 -0.60476,-2.063799 -0.134,-0.579699 -0.15872,-1.143166 -0.17159,-0.964722 a 1.269409,1.269409 0 0 0 -1.31997,-1.377428 1.269409,1.269409 0 0 0 -1.21267,1.194824 c -0.0452,0.625917 0.0738,1.037805 0.23115,1.718504 0.15733,0.680699 0.38748,1.491409 0.68215,2.332451 0.32262,0.920808 0.68964,1.870803 1.16911,2.729412 -1.93059,0.486642 -3.84393,1.189026 -5.72539,2.114687 -1.53302,-2.272892 -2.04797,-2.541001 -3.29534,-5.490566 a 1.269409,1.269409 0 0 0 -1.19508,-0.791306 1.269409,1.269409 0 0 0 -1.14314,1.779902 c 1.28745,3.044325 2.00044,3.685337 3.39215,5.72015 -2.10442,1.255151 -4.1597,2.801935 -6.14439,4.65152 -1.53904,-1.379783 -2.77381,-2.466907 -3.98799,-5.288548 A 1.269409,1.269409 0 0 0 27.13779,75.97899 1.269409,1.269409 0 0 0 26.0062,77.767028 c 1.35399,3.146545 2.9625,4.667342 4.51482,6.071718 -1.24062,1.302648 -2.44969,2.729695 -3.6212,4.285777 a 1.4725144,1.4725144 0 0 0 0.0664,1.852325 c 15.62671,17.948592 42.24748,14.877922 54.451291,-0.03383 a 1.4725144,1.4725144 0 0 0 -0.0307,-1.90085 c -1.70507,-1.95457 -3.49464,-3.742466 -5.352301,-5.34784 a 1.269409,1.269409 0 0 0 0.18682,-0.452071 c 0.36545,-1.764138 0.29258,-1.765859 1.574731,-5.771306 a 1.269409,1.269409 0 0 0 -1.209771,-1.673905 1.269409,1.269409 0 0 0 -1.20794,0.900442 c -1.06259,3.319519 -1.2546,4.132009 -1.48396,5.253924 -2.09105,-1.605667 -4.2569,-2.982744 -6.47629,-4.1113 0.19866,-1.654401 -0.23373,-2.514171 1.34333,-6.697736 a 1.269409,1.269409 0 0 0 -1.25045,-1.732413 1.269409,1.269409 0 0 0 -1.1245,0.836949 c -1.33021,3.528753 -1.41929,5.26013 -1.45509,6.442716 -2.28415,-0.952359 -4.61465,-1.642589 -6.97059,-2.043851 a 1.269409,1.269409 0 0 0 -0.14404,-0.103123 c -0.0984,-0.372459 -0.20723,-1.026645 -0.26971,-1.805872 -0.13063,-1.62944 -0.0945,-3.748371 0.11308,-5.016487 A 1.269409,1.269409 0 0 0 56.47029,65.229537 Z M 46.44623,77.100828 A 11.715358,11.715358 0 0 0 42.46165,85.890155 11.715358,11.715358 0 0 0 54.1769,97.605668 11.715358,11.715358 0 0 0 65.89214,85.890155 11.715358,11.715358 0 0 0 62.86127,78.046922 c 5.42789,2.077331 10.69027,5.828886 15.404651,10.973806 C 67.13149,101.37232 44.20991,104.05177 30.05322,88.928668 35.14742,82.508489 40.72727,78.716764 46.44623,77.100864 Z m 7.73067,5.204079 a 3.5852187,3.5852187 0 0 1 3.58525,3.585248 3.5852187,3.5852187 0 0 1 -3.58525,3.585255 3.5852187,3.5852187 0 0 1 -3.58526,-3.585255 3.5852187,3.5852187 0 0 1 3.58526,-3.585248 z"
       style="color:#000000;font-style:normal;font-variant:normal;font-weight:normal;font-stretch:normal;font-size:medium;line-height:normal;font-family:sans-serif;font-variant-ligatures:normal;font-variant-position:normal;font-variant-caps:normal;font-variant-numeric:normal;font-variant-alternates:normal;font-feature-settings:normal;text-indent:0;text-align:start;text-decoration:none;text-decoration-line:none;text-decoration-style:solid;text-decoration-color:#000000;letter-spacing:normal;word-spacing:normal;text-transform:none;writing-mode:lr-tb;direction:ltr;text-orientation:mixed;dominant-baseline:auto;baseline-shift:baseline;text-anchor:start;white-space:normal;shape-padding:0;clip-rule:nonzero;display:inline;overflow:visible;visibility:visible;opacity:1;isolation:auto;mix-blend-mode:normal;color-interpolation:sRGB;color-interpolation-filters:linearRGB;solid-color:#000000;solid-opacity:1;vector-effect:none;fill:#595959;fill-opacity:1;fill-rule:nonzero;stroke:none;stroke-width:2.94473481;stroke-linecap:round;stroke-linejoin:round;stroke-miterlimit:4;stroke-dasharray:none;stroke-dashoffset:0;stroke-opacity:1;paint-order:stroke fill markers;color-rendering:auto;image-rendering:auto;shape-rendering:auto;text-rendering:auto;enable-background:accumulate" />
    <g
       id="g1043"
       transform="matrix(0.67031676,-0.48775243,-0.48775243,-0.67031676,143.1927,182.70052)">
      <rect
         ry="4.8658328"
         y="87.558266"
         x="-18.219851"
         height="37.304722"
         width="9.6632719"
         id="rect1039"
         style="opacity:1;vector-effect:none;fill:#595959;fill-opacity:1;stroke:none;stroke-width:3.04468894;stroke-linecap:round;stroke-linejoin:miter;stroke-miterlimit:4;stroke-dasharray:none;stroke-dashoffset:0;stroke-opacity:1;paint-order:stroke fill markers" />
      <path
         inkscape:transform-center-y="-4.085978"
         d="m 0.80498273,98.72228 c -1.55696675,2.69675 -26.75151973,2.69674 -28.30848573,-10e-7 -1.556967,-2.696745 11.040309,-24.515868 14.154243,-24.515868 3.113933,0 15.7112095,21.819123 14.15424273,24.515869 z"
         inkscape:randomized="0"
         inkscape:rounded="0.11"
         inkscape:flatsided="true"
         sodipodi:arg2="1.5426278"
         sodipodi:arg1="0.52359878"
         sodipodi:r2="11.931056"
         sodipodi:r1="16.343912"
         sodipodi:cy="90.550323"
         sodipodi:cx="-13.34926"
         sodipodi:sides="3"
         id="path1041"
         style="opacity:1;vector-effect:none;fill:#595959;fill-opacity:1;stroke:none;stroke-width:3.53982997;stroke-linecap:round;stroke-linejoin:miter;stroke-miterlimit:4;stroke-dasharray:none;stroke-dashoffset:0;stroke-opacity:1;paint-order:stroke fill markers"
         sodipodi:type="star" />
    </g>
    <path
       style="opacity:1;vector-effect:none;fill:#595959;fill-opacity:1;stroke:none;stroke-width:8.66780663;stroke-linecap:round;stroke-linejoin:round;stroke-miterlimit:4;stroke-dasharray:none;stroke-dashoffset:0;stroke-opacity:1;paint-order:stroke fill markers"
       d="M 20.193359 308.27539 C 11.817926 308.27539 5.0742188 315.01715 5.0742188 323.39258 L 5.0742188 474.07227 C 5.0742188 482.4477 11.817926 489.18945 20.193359 489.18945 L 474.09375 489.18945 C 482.46918 489.18945 489.21094 482.4477 489.21094 474.07227 L 489.21094 323.39258 C 489.21094 315.01715 482.46918 308.27539 474.09375 308.27539 L 20.193359 308.27539 z M 90.230469 334.18164 A 64.551568 64.551568 0 0 1 154.78125 398.73242 A 64.551568 64.551568 0 0 1 90.230469 463.2832 A 64.551568 64.551568 0 0 1 25.679688 398.73242 A 64.551568 64.551568 0 0 1 90.230469 334.18164 z M 247.14258 334.18164 A 64.551568 64.551568 0 0 1 311.69531 398.73242 A 64.551568 64.551568 0 0 1 247.14258 463.2832 A 64.551568 64.551568 0 0 1 182.5918 398.73242 A 64.551568 64.551568 0 0 1 247.14258 334.18164 z M 404.05469 334.18164 A 64.551568 64.551568 0 0 1 468.60742 398.73242 A 64.551568 64.551568 0 0 1 404.05469 463.2832 A 64.551568 64.551568 0 0 1 339.50391 398.73242 A 64.551568 64.551568 0 0 1 404.05469 334.18164 z "
       transform="matrix(0.26458333,0,0,0.26458333,23.056549,63.032734)"
       id="rect913" />
    <path
       sodipodi:type="star"
       style="opacity:1;vector-effect:none;fill:#595959;fill-opacity:1;stroke:none;stroke-width:1.99380839;stroke-linecap:round;stroke-linejoin:round;stroke-miterlimit:4;stroke-dasharray:none;stroke-dashoffset:0;stroke-opacity:1;paint-order:stroke fill markers"
       id="path934"
       sodipodi:sides="3"
       sodipodi:cx="47.10236"
       sodipodi:cy="169.76668"
       sodipodi:r1="8.5146112"
       sodipodi:r2="4.2573056"
       sodipodi:arg1="0.52359878"
       sodipodi:arg2="1.5707963"
       inkscape:flatsided="true"
       inkscape:rounded="0.11"
       inkscape:randomized="0"
       d="m 54.476229,174.02398 c -0.811125,1.40491 -13.936613,1.40491 -14.747739,0 -0.811126,-1.40491 5.751618,-12.77191 7.37387,-12.77191 1.622251,0 8.184995,11.367 7.373869,12.77191 z"
       inkscape:transform-center-x="-1.1849926e-06"
       inkscape:transform-center-y="-1.6018112" />
    <path
       sodipodi:type="star"
       style="opacity:1;vector-effect:none;fill:#595959;fill-opacity:1;stroke:none;stroke-width:1.99794829;stroke-linecap:round;stroke-linejoin:round;stroke-miterlimit:4;stroke-dasharray:none;stroke-dashoffset:0;stroke-opacity:1;paint-order:stroke fill markers"
       id="path938"
       sodipodi:sides="3"
       sodipodi:cx="88.446356"
       sodipodi:cy="168.53069"
       sodipodi:r1="8.8714542"
       sodipodi:r2="8.8714542"
       sodipodi:arg1="0.52359878"
       sodipodi:arg2="1.5707963"
       inkscape:flatsided="false"
       inkscape:rounded="0.11"
       inkscape:randomized="0"
       d="m 96.129262,172.96641 c -0.48793,0.84512 -6.707044,4.43573 -7.682904,4.43573 -0.97586,0 -7.194975,-3.59061 -7.682905,-4.43573 -0.48793,-0.84512 -0.48793,-8.02633 0,-8.87145 0.48793,-0.84512 6.707045,-4.43573 7.682905,-4.43573 0.97586,0 7.194974,3.59061 7.682904,4.43573 0.48793,0.84512 0.48793,8.02633 0,8.87145 z"
       inkscape:transform-center-x="-1.0422849e-06" />
    <rect
       style="opacity:1;vector-effect:none;fill:#595959;fill-opacity:1;stroke:none;stroke-width:2.08904099;stroke-linecap:round;stroke-linejoin:round;stroke-miterlimit:4;stroke-dasharray:none;stroke-dashoffset:0;stroke-opacity:1;paint-order:stroke fill markers"
       id="rect946"
       width="13.70836"
       height="13.70836"
       x="123.28489"
       y="161.6765"
       rx="3.3424635"
       ry="3.3424635" />
  </g>
</svg>
