<?xml version="1.0" encoding="UTF-8" standalone="no"?>
<!-- Created with Inkscape (http://www.inkscape.org/) -->

<svg
   xmlns:dc="http://purl.org/dc/elements/1.1/"
   xmlns:cc="http://creativecommons.org/ns#"
   xmlns:rdf="http://www.w3.org/1999/02/22-rdf-syntax-ns#"
   xmlns:svg="http://www.w3.org/2000/svg"
   xmlns="http://www.w3.org/2000/svg"
   xmlns:sodipodi="http://sodipodi.sourceforge.net/DTD/sodipodi-0.dtd"
   xmlns:inkscape="http://www.inkscape.org/namespaces/inkscape"
   width="82.999336mm"
   height="82.999466mm"
   viewBox="0 0 82.999336 82.999466"
   version="1.1"
   id="svg989"
   inkscape:version="0.92.4 (5da689c313, 2019-01-14)"
   sodipodi:docname="logo.svg">
  <defs
     id="defs983" />
  <sodipodi:namedview
     id="base"
     pagecolor="#ffffff"
     bordercolor="#666666"
     borderopacity="1.0"
     inkscape:pageopacity="0.0"
     inkscape:pageshadow="2"
     inkscape:zoom="0.35"
     inkscape:cx="-338.86514"
     inkscape:cy="-83.150621"
     inkscape:document-units="mm"
     inkscape:current-layer="layer1"
     showgrid="false"
     inkscape:window-width="1920"
     inkscape:window-height="1046"
     inkscape:window-x="-11"
     inkscape:window-y="-11"
     inkscape:window-maximized="1" />
  <metadata
     id="metadata986">
    <rdf:RDF>
      <cc:Work
         rdf:about="">
        <dc:format>image/svg+xml</dc:format>
        <dc:type
           rdf:resource="http://purl.org/dc/dcmitype/StillImage" />
        <dc:title />
      </cc:Work>
    </rdf:RDF>
  </metadata>
  <g
     inkscape:label="Layer 1"
     inkscape:groupmode="layer"
     id="layer1"
     transform="translate(102.73181,-43.833602)">
    <g
       id="g1028"
       transform="matrix(0.65882062,0,0,0.65882062,-0.5641596,63.660939)"
       style="stroke-width:1.51786387;fill:#3c92cc;fill-opacity:1"
       inkscape:export-xdpi="96"
       inkscape:export-ydpi="96">
      <path
         inkscape:connector-curvature="0"
         id="path973"
         d="m -142.16711,-17.186443 c -17.21263,17.21263177 -17.21264,45.333437 0,62.546077 14.9499,14.94989 38.12563,16.91069 55.238657,5.8911 0.0954,0.10394 0.19226,0.20761 0.29306,0.30841 l 41.486181,41.48618 c 3.735042,3.73504 9.68883,3.79544 13.348703,0.13556 3.659874,-3.65987 3.599111,-9.61329 -0.135931,-13.34834 l -41.486183,-41.48618 c -0.10067,-0.10067 -0.20422,-0.19735 -0.30804,-0.29269 11.02,-17.112854 9.05834,-40.2884902 -5.89183,-55.238658 -17.21264,-17.212638 -45.331967,-17.214101 -62.544617,-0.0015 z m 9.89963,9.8996208 c 11.86255,-11.8625588 30.88282,-11.8610938 42.745367,0.0015 11.86256,11.862555 11.86256,30.8813572 0,42.7439162 -11.862547,11.86255 -30.882817,11.86401 -42.745367,0.001 -11.86256,-11.862554 -11.86255,-30.8842862 0,-42.7468352 z"
         style="color:#000000;font-style:normal;font-variant:normal;font-weight:normal;font-stretch:normal;font-size:medium;line-height:normal;font-family:sans-serif;font-variant-ligatures:normal;font-variant-position:normal;font-variant-caps:normal;font-variant-numeric:normal;font-variant-alternates:normal;font-feature-settings:normal;text-indent:0;text-align:start;text-decoration:none;text-decoration-line:none;text-decoration-style:solid;text-decoration-color:#000000;letter-spacing:normal;word-spacing:normal;text-transform:none;writing-mode:lr-tb;direction:ltr;text-orientation:mixed;dominant-baseline:auto;baseline-shift:baseline;text-anchor:start;white-space:normal;shape-padding:0;clip-rule:nonzero;display:inline;overflow:visible;visibility:visible;opacity:0.98999999;isolation:auto;mix-blend-mode:normal;color-interpolation:sRGB;color-interpolation-filters:linearRGB;solid-color:#000000;solid-opacity:1;vector-effect:none;fill:#3c92cc;fill-opacity:1;fill-rule:nonzero;stroke:none;stroke-width:21.25009346;stroke-linecap:round;stroke-linejoin:bevel;stroke-miterlimit:4;stroke-dasharray:none;stroke-dashoffset:0;stroke-opacity:1;paint-order:normal;color-rendering:auto;image-rendering:auto;shape-rendering:auto;text-rendering:auto;enable-background:accumulate" />
      <g
         style="stroke-width:3.61179209;fill:#3c92cc;fill-opacity:1"
         transform="matrix(0.42025225,0,0,0.42025225,-92.04809,-70.710248)"
         id="g1001">
        <g
           style="stroke-width:5.68151522;fill:#3c92cc;fill-opacity:1"
           transform="matrix(0.63570932,0,0,0.63570932,146.80996,103.5365)"
           id="g1021">
          <path
             style="color:#000000;font-style:normal;font-variant:normal;font-weight:normal;font-stretch:normal;font-size:medium;line-height:normal;font-family:sans-serif;font-variant-ligatures:normal;font-variant-position:normal;font-variant-caps:normal;font-variant-numeric:normal;font-variant-alternates:normal;font-feature-settings:normal;text-indent:0;text-align:start;text-decoration:none;text-decoration-line:none;text-decoration-style:solid;text-decoration-color:#000000;letter-spacing:normal;word-spacing:normal;text-transform:none;writing-mode:lr-tb;direction:ltr;text-orientation:mixed;dominant-baseline:auto;baseline-shift:baseline;text-anchor:start;white-space:normal;shape-padding:0;clip-rule:nonzero;display:inline;overflow:visible;visibility:visible;opacity:0.98999999;isolation:auto;mix-blend-mode:normal;color-interpolation:sRGB;color-interpolation-filters:linearRGB;solid-color:#000000;solid-opacity:1;vector-effect:none;fill:#3c92cc;fill-opacity:1;fill-rule:nonzero;stroke:none;stroke-width:48.09402466;stroke-linecap:round;stroke-linejoin:round;stroke-miterlimit:4;stroke-dasharray:none;stroke-dashoffset:0;stroke-opacity:1;paint-order:normal;color-rendering:auto;image-rendering:auto;shape-rendering:auto;text-rendering:auto;enable-background:accumulate"
             d="m -303.32031,80.033203 c -38.54947,1.369625 -74.77875,27.115727 -106.24805,70.097657 a 10.072339,10.072339 0 0 0 1.65234,13.66406 c 39.55546,33.19217 78.92769,47.11042 115.55664,45.29102 36.62896,-1.8194 69.76036,-19.21325 97.41993,-45.73633 a 10.072339,10.072339 0 0 0 1.31054,-13.00195 c -33.26938,-48.05138 -71.14194,-71.684082 -109.6914,-70.314457 z m 0.71484,20.130857 c 28.23157,-1.003038 57.82315,15.18763 87.11328,54.57032 -23.43272,20.43702 -49.63876,32.83233 -77.86523,34.23437 -28.72275,1.42669 -60.18555,-8.50805 -93.9336,-34.60742 27.62687,-34.94574 56.78089,-53.20584 84.68555,-54.19727 z"
             id="path1005"
             inkscape:connector-curvature="0" />
          <path
             inkscape:connector-curvature="0"
             style="opacity:0.98999999;fill:#3c92cc;fill-opacity:1;fill-rule:nonzero;stroke:none;stroke-width:22.72606277;stroke-linecap:round;stroke-linejoin:bevel;stroke-miterlimit:4;stroke-dasharray:none;stroke-dashoffset:0;stroke-opacity:1;paint-order:normal"
             d="m -301.67688,87.3166 a 43.972114,43.972114 0 0 0 -43.97166,43.97271 43.972114,43.972114 0 0 0 43.97166,43.97165 43.972114,43.972114 0 0 0 43.9727,-43.97165 43.972114,43.972114 0 0 0 -43.9727,-43.97271 z m 16.43235,18.50575 a 15.637786,15.637786 0 0 1 15.63767,15.63769 15.637786,15.637786 0 0 1 -15.63767,15.63766 15.637786,15.637786 0 0 1 -15.63766,-15.63766 15.637786,15.637786 0 0 1 15.63766,-15.63769 z"
             id="path1009" />
        </g>
      </g>
    </g>
  </g>
</svg>
