<?xml version="1.0" encoding="UTF-8" standalone="no"?>
<!-- Created with Inkscape (http://www.inkscape.org/) -->

<svg
   xmlns:dc="http://purl.org/dc/elements/1.1/"
   xmlns:cc="http://creativecommons.org/ns#"
   xmlns:rdf="http://www.w3.org/1999/02/22-rdf-syntax-ns#"
   xmlns:svg="http://www.w3.org/2000/svg"
   xmlns="http://www.w3.org/2000/svg"
   xmlns:sodipodi="http://sodipodi.sourceforge.net/DTD/sodipodi-0.dtd"
   xmlns:inkscape="http://www.inkscape.org/namespaces/inkscape"
   width="297mm"
   height="210mm"
   viewBox="0 0 297 210"
   version="1.1"
   id="svg8"
   sodipodi:docname="menu_bg.svg"
   inkscape:version="0.92.4 (5da689c313, 2019-01-14)">
  <defs
     id="defs2" />
  <sodipodi:namedview
     id="base"
     pagecolor="#ffffff"
     bordercolor="#666666"
     borderopacity="1.0"
     inkscape:pageopacity="0.0"
     inkscape:pageshadow="2"
     inkscape:zoom="0.36660471"
     inkscape:cx="873.54765"
     inkscape:cy="305.24658"
     inkscape:document-units="mm"
     inkscape:current-layer="layer1"
     showgrid="false"
     inkscape:window-width="1920"
     inkscape:window-height="1046"
     inkscape:window-x="-11"
     inkscape:window-y="-11"
     inkscape:window-maximized="1"
     inkscape:snap-global="false"
     inkscape:snap-page="true" />
  <metadata
     id="metadata5">
    <rdf:RDF>
      <cc:Work
         rdf:about="">
        <dc:format>image/svg+xml</dc:format>
        <dc:type
           rdf:resource="http://purl.org/dc/dcmitype/StillImage" />
        <dc:title></dc:title>
      </cc:Work>
    </rdf:RDF>
  </metadata>
  <g
     inkscape:label="Layer 1"
     inkscape:groupmode="layer"
     id="layer1"
     transform="translate(0,-87)">
    <g
       id="g886"
       transform="translate(0,-6.3500003)">
      <path
         inkscape:connector-curvature="0"
         id="path841"
         d="m 28.672332,279.01012 c -0.568243,-0.3382 -1.19579,-0.50838 -1.761213,-0.44042 -2.356625,0.28346 -5.46389,2.26066 -6.556612,4.68929 -2.020246,4.49019 -0.352828,4.65078 -1.99495,7.28967 -0.350303,0.56295 -0.779551,1.13677 -1.230477,1.73115 a 13.896563,0.93717976 31.890251 0 1 3.552206,2.15855 13.896563,0.93717976 31.890251 0 1 2.612452,1.65413 c 0.39718,-0.64908 0.812352,-1.31495 1.281879,-1.99944 1.66718,-2.43052 2.014022,-1.90335 5.022204,-6.44188 1.631905,-2.4621 1.117046,-6.36145 0.235887,-7.58014 -0.313196,-0.43314 -0.719404,-0.79784 -1.161511,-1.06075 z m -12.612904,14.70497 c -0.365808,0.5136 -0.717473,1.04664 -1.025181,1.60474 -0.98398,1.78471 -2.755684,3.78223 0.28179,5.97484 3.03746,2.19258 4.721983,-0.39983 5.784946,-1.81566 0.444344,-0.59187 0.845137,-1.2027 1.238042,-1.83084 a 13.896563,0.93717976 31.890251 0 1 -2.647957,-1.61834 13.896563,0.93717976 31.890251 0 1 -3.63164,-2.31474 z"
         style="opacity:1;vector-effect:none;fill:#ffffff;fill-opacity:0.54275094;stroke:none;stroke-width:0.24264425;stroke-linecap:round;stroke-linejoin:round;stroke-miterlimit:4;stroke-dasharray:0.72793269, 0.72793269;stroke-dashoffset:0;stroke-opacity:1;paint-order:stroke fill markers" />
      <path
         style="opacity:1;vector-effect:none;fill:#ffffff;fill-opacity:0.54275094;stroke:none;stroke-width:0.24264425;stroke-linecap:round;stroke-linejoin:round;stroke-miterlimit:4;stroke-dasharray:0.72793269, 0.72793269;stroke-dashoffset:0;stroke-opacity:1;paint-order:stroke fill markers"
         d="m 20.046782,244.97998 c 0.632247,0.19384 1.179573,0.54499 1.508795,1.00967 1.371957,1.93694 1.992546,5.56726 0.926133,8.00755 -1.971692,4.51171 -3.210055,3.38376 -4.06354,6.37236 -0.182112,0.63753 -0.319191,1.3409 -0.457001,2.07414 a 13.896563,0.93717976 15.939973 0 0 -3.984527,-1.18365 13.896563,0.93717976 15.939973 0 0 -2.979795,-0.82577 c 0.214414,-0.73011 0.429226,-1.48484 0.621334,-2.29236 0.682186,-2.86733 0.05863,-2.77049 1.402911,-8.04688 0.729257,-2.8624 3.964934,-5.09854 5.45972,-5.2636 0.531284,-0.0587 1.074295,-0.002 1.565966,0.14858 z m -2.431295,19.22005 c -0.135098,0.61591 -0.294058,1.23441 -0.501114,1.83714 -0.662178,1.92742 -0.953277,4.58153 -4.617485,3.80223 -3.6641958,-0.77928 -2.8736648,-3.76816 -2.5379178,-5.50645 0.1403278,-0.7267 0.3240368,-1.43381 0.5258128,-2.14672 a 13.896563,0.93717976 15.939973 0 0 2.977108,0.8761 13.896563,0.93717976 15.939973 0 0 4.153612,1.13767 z"
         id="path844"
         inkscape:connector-curvature="0" />
      <path
         inkscape:connector-curvature="0"
         id="path850"
         d="m 44.922489,224.55707 c -0.637968,-0.17406 -1.288163,-0.17037 -1.814859,0.0463 -2.195137,0.90301 -4.660996,3.63863 -5.064937,6.27096 -0.746815,4.86678 0.902842,4.57592 0.02576,7.5577 -0.18698,0.63613 -0.447377,1.30374 -0.723095,1.99702 a 13.896563,0.93717976 16.389724 0 1 3.999877,1.13072 13.896563,0.93717976 16.389724 0 1 2.959532,0.89573 c 0.209123,-0.73166 0.431612,-1.48416 0.700893,-2.26931 0.956986,-2.78767 1.432096,-2.37237 3.117935,-7.54974 0.914546,-2.80869 -0.62363,-6.4286 -1.798443,-7.36748 -0.417556,-0.33366 -0.906457,-0.57657 -1.402655,-0.71194 z M 36.6982,242.09796 c -0.215254,0.59266 -0.411597,1.20033 -0.559025,1.82034 -0.471234,1.98278 -1.644654,4.38113 1.868295,5.68222 3.512957,1.30109 4.443412,-1.64719 5.089311,-3.29562 0.27002,-0.68911 0.492965,-1.38483 0.703715,-2.09515 a 13.896563,0.93717976 16.389724 0 1 -2.98414,-0.85182 13.896563,0.93717976 16.389724 0 1 -4.118147,-1.26002 z"
         style="opacity:1;vector-effect:none;fill:#ffffff;fill-opacity:0.54275094;stroke:none;stroke-width:0.24264425;stroke-linecap:round;stroke-linejoin:round;stroke-miterlimit:4;stroke-dasharray:0.72793269, 0.72793269;stroke-dashoffset:0;stroke-opacity:1;paint-order:stroke fill markers" />
      <path
         style="opacity:1;vector-effect:none;fill:#ffffff;fill-opacity:0.54275094;stroke:none;stroke-width:0.24264425;stroke-linecap:round;stroke-linejoin:round;stroke-miterlimit:4;stroke-dasharray:0.72793269, 0.72793269;stroke-dashoffset:0;stroke-opacity:1;paint-order:stroke fill markers"
         d="m 23.110954,195.59058 c 0.654317,-0.0957 1.299315,-0.0134 1.795961,0.2653 2.0699,1.1617 4.186973,4.17537 4.269753,6.83724 0.15305,4.92135 -1.44936,4.43322 -0.939117,7.49915 0.108812,0.65405 0.286513,1.34825 0.476372,2.06978 a 0.93717976,13.896563 80.553123 0 0 -4.107247,0.63888 0.93717976,13.896563 80.553123 0 0 -3.046075,0.53148 c -0.119266,-0.75154 -0.248797,-1.52546 -0.421462,-2.33737 -0.612985,-2.88292 -1.134825,-2.5281 -2.182472,-7.87128 -0.568346,-2.89862 1.39617,-6.30607 2.675836,-7.09604 0.454833,-0.28079 0.969505,-0.46279 1.478444,-0.53719 z m 6.043649,18.4064 c 0.142058,0.61434 0.263564,1.24128 0.334926,1.87457 0.228076,2.0252 1.103008,4.54781 -2.541463,5.4147 -3.644459,0.86691 -4.211687,-2.17225 -4.653621,-3.88662 -0.184736,-0.7167 -0.321959,-1.43428 -0.445315,-2.16485 a 0.93717976,13.896563 80.553123 0 0 3.065232,-0.48488 0.93717976,13.896563 80.553123 0 0 4.24026,-0.75301 z"
         id="path852"
         inkscape:connector-curvature="0" />
      <path
         style="opacity:1;vector-effect:none;fill:#ffffff;fill-opacity:0.54275094;stroke:none;stroke-width:0.24264425;stroke-linecap:round;stroke-linejoin:round;stroke-miterlimit:4;stroke-dasharray:0.72793269, 0.72793269;stroke-dashoffset:0;stroke-opacity:1;paint-order:stroke fill markers"
         d="m 50.262078,168.39304 c -0.647043,-0.13642 -1.295956,-0.0941 -1.808949,0.15319 -2.138114,1.0308 -4.438396,3.90707 -4.686454,6.55865 -0.458599,4.90234 1.171041,4.51474 0.471242,7.54303 -0.149202,0.64604 -0.369751,1.32784 -0.603886,2.03623 a 13.896563,0.93717976 13.010107 0 1 4.059569,0.89298 13.896563,0.93717976 13.010107 0 1 3.007153,0.71978 c 0.165689,-0.74268 0.343423,-1.50699 0.565907,-2.30665 0.790955,-2.83926 1.289753,-2.45268 2.667449,-7.72043 0.747412,-2.8577 -1.001554,-6.38066 -2.229645,-7.24863 -0.436317,-0.30873 -0.938859,-0.52214 -1.442192,-0.62801 z m -7.175912,17.99521 c -0.179974,0.60433 -0.340144,1.22251 -0.450741,1.85013 -0.353532,2.00712 -1.383515,4.47047 2.20001,5.56221 3.583539,1.09172 4.338546,-1.90631 4.886177,-3.58991 0.228944,-0.70383 0.41036,-1.41152 0.57901,-2.13299 a 13.896563,0.93717976 13.010107 0 1 -3.029167,-0.67443 13.896563,0.93717976 13.010107 0 1 -4.18529,-1.01502 z"
         id="path854"
         inkscape:connector-curvature="0" />
      <path
         inkscape:connector-curvature="0"
         id="path856"
         d="m 23.40925,142.52986 c 0.641449,-0.16068 1.291437,-0.1434 1.813495,0.0842 2.175824,0.94859 4.583966,3.73519 4.932851,6.37538 0.644991,4.88133 -0.998256,4.55608 -0.183625,7.55552 0.173773,0.63986 0.420043,1.3128 0.681212,2.01169 a 0.93717976,13.896563 74.807129 0 0 -4.02262,1.04692 0.93717976,13.896563 74.807129 0 0 -2.977556,0.83377 c -0.193923,-0.73583 -0.400299,-1.4929 -0.653349,-2.28343 -0.898566,-2.80706 -1.382247,-2.40177 -2.959579,-7.61323 -0.855689,-2.82717 0.757796,-6.41418 1.951958,-7.3283 0.424435,-0.3249 0.918305,-0.55752 1.417232,-0.68249 z m 7.856102,17.70883 c 0.202804,0.59706 0.386533,1.20866 0.520892,1.83164 0.429732,1.99217 1.552792,4.41451 -1.986587,5.64194 -3.539354,1.22742 -4.407995,-1.73966 -5.019341,-3.40119 -0.255534,-0.69462 -0.463939,-1.39483 -0.659836,-2.10939 a 0.93717976,13.896563 74.807129 0 0 3.001304,-0.78929 0.93717976,13.896563 74.807129 0 0 4.143568,-1.17371 z"
         style="opacity:1;vector-effect:none;fill:#ffffff;fill-opacity:0.54275094;stroke:none;stroke-width:0.24264425;stroke-linecap:round;stroke-linejoin:round;stroke-miterlimit:4;stroke-dasharray:0.72793269, 0.72793269;stroke-dashoffset:0;stroke-opacity:1;paint-order:stroke fill markers" />
      <path
         style="opacity:1;vector-effect:none;fill:#ffffff;fill-opacity:0.54275094;stroke:none;stroke-width:0.24264425;stroke-linecap:round;stroke-linejoin:round;stroke-miterlimit:4;stroke-dasharray:0.72793269, 0.72793269;stroke-dashoffset:0;stroke-opacity:1;paint-order:stroke fill markers"
         d="m 43.853626,109.96108 c -0.659327,0.0506 -1.270275,0.27341 -1.693266,0.65468 -1.762917,1.58941 -3.163588,4.99562 -2.657552,7.61027 0.935584,4.83403 2.390963,4.00468 2.569125,7.10767 0.03809,0.66194 0.01774,1.37824 -0.0082,2.12387 a 0.93717976,13.896563 86.712117 0 1 4.147033,-0.28216 0.93717976,13.896563 86.712117 0 1 3.08831,-0.15304 c -0.04939,-0.75934 -0.09329,-1.54282 -0.10416,-2.37278 -0.03762,-2.94714 0.549625,-2.71605 0.393653,-8.15875 -0.08459,-2.95262 -2.751929,-5.84318 -4.174251,-6.33163 -0.50543,-0.17385 -1.04766,-0.23772 -1.560478,-0.19807 z m -1.837501,19.28586 c -0.0031,0.63056 0.0166,1.26885 0.08658,1.90229 0.22394,2.02567 -0.07336,4.67907 3.672542,4.72129 3.745908,0.0422 3.629229,-3.04725 3.682381,-4.81688 0.02222,-0.73979 -0.0023,-1.46996 -0.04285,-2.20976 a 0.93717976,13.896563 86.712117 0 1 -3.096705,0.20277 0.93717976,13.896563 86.712117 0 1 -4.301954,0.20029 z"
         id="path968"
         inkscape:connector-curvature="0" />
      <path
         inkscape:connector-curvature="0"
         id="path970"
         d="m 11.972658,94.711829 c 0.5997,-0.278626 1.241307,-0.384087 1.79689,-0.258912 2.315558,0.521767 5.205493,2.804869 6.045456,5.33207 1.552921,4.672453 -0.122179,4.662563 1.242872,7.454873 0.291189,0.59567 0.659809,1.21017 1.047952,1.84736 a 0.93717976,13.896563 63.949662 0 0 -3.753407,1.7859 0.93717976,13.896563 63.949662 0 0 -2.767201,1.37972 c -0.329045,-0.68613 -0.674344,-1.39077 -1.071777,-2.1195 -1.411234,-2.58755 -1.809917,-2.0984 -4.340673,-6.91945 -1.3729167,-2.61538 -0.4639867,-6.442106 0.536608,-7.564799 0.355638,-0.399039 0.796849,-0.720523 1.263302,-0.937232 z m 11.051218,15.912001 c 0.311645,0.54817 0.607283,1.11422 0.856582,1.70072 0.797297,1.87559 2.356543,4.043 -0.888269,5.91516 -3.244787,1.87215 -4.656783,-0.87821 -5.570157,-2.39482 -0.381807,-0.63406 -0.718381,-1.28248 -1.045359,-1.94734 a 0.93717976,13.896563 63.949662 0 0 2.798897,-1.34051 0.93717976,13.896563 63.949662 0 0 3.848306,-1.93321 z"
         style="opacity:1;vector-effect:none;fill:#ffffff;fill-opacity:0.54275094;stroke:none;stroke-width:0.24264425;stroke-linecap:round;stroke-linejoin:round;stroke-miterlimit:4;stroke-dasharray:0.72793269, 0.72793269;stroke-dashoffset:0;stroke-opacity:1;paint-order:stroke fill markers" />
    </g>
    <path
       inkscape:connector-curvature="0"
       id="path986"
       d="m 225.68918,271.04184 c 0.59895,0.28023 1.0922,0.70388 1.35351,1.20988 1.08898,2.10908 1.1981,5.79044 -0.19766,8.0585 -2.58061,4.1933 -3.64992,2.90386 -4.91111,5.74458 -0.26905,0.60601 -0.50277,1.28343 -0.7413,1.99033 a 13.896563,0.93717976 23.942534 0 0 -3.78095,-1.72683 13.896563,0.93717976 23.942534 0 0 -2.83581,-1.23258 c 0.31399,-0.69316 0.63177,-1.41063 0.93442,-2.18353 1.07471,-2.74444 0.44375,-2.73535 2.50951,-7.7732 1.12065,-2.733 4.63613,-4.49691 6.13934,-4.45227 0.53428,0.0159 1.06416,0.14721 1.52999,0.36531 z m -5.08339,18.6944 c -0.21952,0.59111 -0.46305,1.18144 -0.75202,1.74946 -0.92405,1.81647 -1.5818,4.40421 -5.10185,3.12239 -3.52002,-1.28184 -2.32109,-4.13153 -1.7466,-5.80617 0.24016,-0.70006 0.52048,-1.37472 0.81954,-2.05259 a 13.896563,0.93717976 23.942534 0 0 2.82614,1.28206 13.896563,0.93717976 23.942534 0 0 3.95479,1.70485 z"
       style="opacity:1;vector-effect:none;fill:#ffffff;fill-opacity:0.54275094;stroke:none;stroke-width:0.24264425;stroke-linecap:round;stroke-linejoin:round;stroke-miterlimit:4;stroke-dasharray:0.72793269, 0.72793269;stroke-dashoffset:0;stroke-opacity:1;paint-order:stroke fill markers" />
    <path
       style="opacity:1;vector-effect:none;fill:#ffffff;fill-opacity:0.54275094;stroke:none;stroke-width:0.24264425;stroke-linecap:round;stroke-linejoin:round;stroke-miterlimit:4;stroke-dasharray:0.72793269, 0.72793269;stroke-dashoffset:0;stroke-opacity:1;paint-order:stroke fill markers"
       d="m 258.34502,254.6818 c -0.51547,-0.41427 -1.11338,-0.66991 -1.68276,-0.68135 -2.37313,-0.0473 -5.72539,1.478 -7.14559,3.73085 -2.62568,4.1652 -0.99692,4.55636 -2.99037,6.94095 -0.42523,0.50872 -0.9302,1.01717 -1.45949,1.54299 a 13.896563,0.93717976 39.892812 0 1 3.21709,2.63206 13.896563,0.93717976 39.892812 0 1 2.35673,2.00172 c 0.48368,-0.58744 0.98751,-1.18904 1.54776,-1.8015 1.98931,-2.17477 2.2594,-1.60442 5.87011,-5.67998 1.95881,-2.21095 1.9918,-6.144 1.28888,-7.47348 -0.2498,-0.47256 -0.60167,-0.89 -1.00239,-1.21224 z m -14.53728,12.80582 c -0.43373,0.45768 -0.85619,0.93657 -1.23862,1.44639 -1.22285,1.63034 -3.25539,3.36177 -0.55286,5.95587 2.70263,2.59412 4.73167,0.26144 5.98137,-0.99259 0.52246,-0.52424 1.00435,-1.07336 1.4809,-1.64068 a 13.896563,0.93717976 39.892812 0 1 -2.39686,-1.97124 13.896563,0.93717976 39.892812 0 1 -3.27402,-2.79779 z"
       id="path988"
       inkscape:connector-curvature="0" />
    <path
       style="opacity:1;vector-effect:none;fill:#ffffff;fill-opacity:0.54275094;stroke:none;stroke-width:0.24264425;stroke-linecap:round;stroke-linejoin:round;stroke-miterlimit:4;stroke-dasharray:0.72793269, 0.72793269;stroke-dashoffset:0;stroke-opacity:1;paint-order:stroke fill markers"
       d="m 255.40708,225.24814 c 0.55477,0.3599 0.98503,0.84739 1.17423,1.38457 0.78854,2.23881 0.39031,5.90019 -1.30415,7.95473 -3.13278,3.79854 -4.01457,2.37432 -5.65452,5.01452 -0.35,0.56315 -0.67449,1.20208 -1.00802,1.86948 a 13.896563,0.93717976 31.847922 0 0 -3.50752,-2.23042 13.896563,0.93717976 31.847922 0 0 -2.6393,-1.61094 c 0.40621,-0.64346 0.8195,-1.31049 1.22585,-2.03427 1.44198,-2.57054 0.81574,-2.64832 3.55478,-7.35417 1.48589,-2.55288 5.21056,-3.81653 6.69334,-3.56554 0.527,0.0892 1.03381,0.29209 1.46528,0.57206 z m -7.60627,17.8176 c -0.29871,0.55531 -0.62115,1.10653 -0.98547,1.62942 -1.16514,1.6721 -2.17253,4.14477 -5.48282,2.39101 -3.31028,-1.75378 -1.7308,-4.41151 -0.93146,-5.99122 0.33417,-0.66038 0.70463,-1.29005 1.09411,-1.92036 a 13.896563,0.93717976 31.847922 0 0 2.62295,1.65855 13.896563,0.93717976 31.847922 0 0 3.68272,2.2326 z"
       id="path990"
       inkscape:connector-curvature="0" />
    <path
       inkscape:connector-curvature="0"
       id="path992"
       d="m 287.31259,219.62252 c -0.45382,-0.48097 -1.01066,-0.81668 -1.57303,-0.90631 -2.34408,-0.37333 -5.87426,0.67646 -7.59082,2.71258 -3.17363,3.76449 -1.61412,4.37595 -3.9166,6.46371 -0.49117,0.44542 -1.06127,0.87956 -1.65799,1.32742 a 13.896563,0.93717976 47.798201 0 1 2.82454,3.04951 13.896563,0.93717976 47.798201 0 1 2.05903,2.30684 c 0.55985,-0.51536 1.14164,-1.04192 1.78082,-1.57151 2.26947,-1.88053 2.45857,-1.27844 6.59553,-4.81863 2.24425,-1.92053 2.81789,-5.81166 2.3045,-7.22519 -0.18251,-0.50238 -0.47315,-0.96448 -0.82615,-1.33858 z m -16.16039,10.6847 c -0.49244,0.39384 -0.97688,0.80991 -1.42579,1.26231 -1.43547,1.44665 -3.68683,2.88206 -1.36665,5.82325 2.32022,2.94113 4.65076,0.90975 6.06107,-0.1605 0.58956,-0.44744 1.14244,-0.92497 1.69249,-1.42139 a 13.896563,0.93717976 47.798201 0 1 -2.10299,-2.28212 13.896563,0.93717976 47.798201 0 1 -2.85811,-3.22152 z"
       style="opacity:1;vector-effect:none;fill:#ffffff;fill-opacity:0.54275094;stroke:none;stroke-width:0.24264425;stroke-linecap:round;stroke-linejoin:round;stroke-miterlimit:4;stroke-dasharray:0.72793269, 0.72793269;stroke-dashoffset:0;stroke-opacity:1;paint-order:stroke fill markers" />
    <path
       inkscape:connector-curvature="0"
       id="path994"
       d="m 289.32622,189.63862 c 0.5023,0.4301 0.8644,0.97015 0.98093,1.52763 0.48566,2.32339 -0.39295,5.9 -2.34409,7.71256 -3.60736,3.35115 -4.29317,1.82287 -6.26775,4.22313 -0.42132,0.51197 -0.82746,1.10237 -1.24623,1.71985 a 13.896563,0.93717976 39.443061 0 0 -3.18194,-2.67449 13.896563,0.93717976 39.443061 0 0 -2.40323,-1.94567 c 0.48794,-0.58394 0.9856,-1.19063 1.48401,-1.85438 1.76906,-2.3574 1.15861,-2.51728 4.4956,-6.8198 1.81029,-2.33409 5.66927,-3.09438 7.10589,-2.64963 0.51058,0.15811 0.98613,0.42621 1.37681,0.76074 z m -9.89453,16.65593 c -0.36948,0.51095 -0.76201,1.01467 -1.19221,1.48486 -1.37591,1.50345 -2.7013,3.82128 -5.75073,1.64536 -3.04943,-2.17591 -1.13257,-4.60157 -0.13141,-6.06176 0.41853,-0.61042 0.86896,-1.18561 1.33833,-1.75891 a 13.896563,0.93717976 39.443061 0 0 2.38072,1.9907 13.896563,0.93717976 39.443061 0 0 3.35534,2.69972 z"
       style="opacity:1;vector-effect:none;fill:#ffffff;fill-opacity:0.54275094;stroke:none;stroke-width:0.24264425;stroke-linecap:round;stroke-linejoin:round;stroke-miterlimit:4;stroke-dasharray:0.72793269, 0.72793269;stroke-dashoffset:0;stroke-opacity:1;paint-order:stroke fill markers" />
    <g
       id="g893">
      <path
         style="opacity:1;vector-effect:none;fill:#ffffff;fill-opacity:0.54275094;stroke:none;stroke-width:0.24264425;stroke-linecap:round;stroke-linejoin:round;stroke-miterlimit:4;stroke-dasharray:0.72793269, 0.72793269;stroke-dashoffset:0;stroke-opacity:1;paint-order:stroke fill markers"
         d="m 274.5346,127.13868 c -0.42988,0.50247 -0.7043,1.09194 -0.73341,1.6607 -0.12134,2.37052 1.29882,5.76867 3.50631,7.2584 4.08136,2.75426 4.5231,1.13842 6.84442,3.20523 0.49521,0.4409 0.98769,0.96144 1.49675,1.50688 a 0.93717976,13.896563 41.678718 0 1 2.73104,-3.13352 0.93717976,13.896563 41.678718 0 1 2.07418,-2.2932 c -0.57212,-0.50174 -1.15769,-1.02408 -1.7524,-1.60313 -2.1117,-2.05614 -1.53324,-2.30831 -5.49427,-6.04428 -2.14883,-2.02673 -6.07894,-2.18232 -7.42969,-1.52116 -0.48008,0.23499 -0.90854,0.57328 -1.24291,0.96411 z m 12.34656,14.92928 c 0.44394,0.4478 0.90942,0.885 1.40709,1.28309 1.59143,1.2731 3.25867,3.3586 5.93576,0.7381 2.67707,-2.62049 0.40879,-4.72121 -0.80571,-6.00939 -0.50775,-0.5385 -1.04153,-1.0373 -1.59372,-1.53132 a 0.93717976,13.896563 41.678718 0 1 -2.04496,2.33429 0.93717976,13.896563 41.678718 0 1 -2.89846,3.18523 z"
         id="path1000"
         inkscape:connector-curvature="0" />
      <path
         style="opacity:1;vector-effect:none;fill:#ffffff;fill-opacity:0.54275094;stroke:none;stroke-width:0.24264425;stroke-linecap:round;stroke-linejoin:round;stroke-miterlimit:4;stroke-dasharray:0.72793269, 0.72793269;stroke-dashoffset:0;stroke-opacity:1;paint-order:stroke fill markers"
         d="m 248.86418,127.31698 c 0.4244,-0.50711 0.96072,-0.87485 1.51685,-0.99745 2.318,-0.51088 5.90393,0.32892 7.73757,2.2603 3.39007,3.5708 1.86931,4.27315 4.29091,6.22154 0.51653,0.4157 1.11126,0.81544 1.73311,1.22769 a 0.93717976,13.896563 38.821566 0 0 -2.6398,3.21076 0.93717976,13.896563 38.821566 0 0 -1.91941,2.42424 c -0.58923,-0.48151 -1.20129,-0.97257 -1.87037,-1.46377 -2.37643,-1.74344 -2.52969,-1.13125 -6.86816,-4.42138 -2.3536,-1.78484 -3.15566,-5.6354 -2.72652,-7.07672 0.15227,-0.51235 0.41543,-0.99071 0.74574,-1.38499 z m 16.76226,9.71328 c 0.51498,0.36386 1.0229,0.75093 1.4977,1.17602 1.5183,1.35952 3.85035,2.65971 1.70765,5.73256 -2.14271,3.07284 -4.589,1.18236 -6.05997,0.19714 -0.61494,-0.41188 -1.19491,-0.85614 -1.77335,-1.31914 a 0.93717976,13.896563 38.821566 0 0 1.96476,-2.40218 0.93717976,13.896563 38.821566 0 0 2.66321,-3.3844 z"
         id="path1002"
         inkscape:connector-curvature="0" />
      <path
         inkscape:connector-curvature="0"
         id="path1004"
         d="m 250.69607,105.62969 c -0.53253,0.39202 -0.93335,0.90401 -1.09056,1.45139 -0.65517,2.2814 -0.0417,5.91293 1.77088,7.864 3.35133,3.60722 4.14763,2.13346 5.94039,4.67241 0.38246,0.54161 0.74422,1.16018 1.11649,1.80677 a 0.93717976,13.896563 54.771844 0 1 3.36988,-2.43339 0.93717976,13.896563 54.771844 0 1 2.53976,-1.76371 c -0.44359,-0.61829 -0.89561,-1.25971 -1.34368,-1.95844 -1.59102,-2.48106 -0.97047,-2.59562 -3.9822,-7.13179 -1.63384,-2.46082 -5.42654,-3.50266 -6.89194,-3.16469 -0.52085,0.12012 -1.0148,0.35256 -1.42901,0.65749 z m 8.64358,17.3381 c 0.33097,0.53672 0.6853,1.06801 1.07985,1.56848 1.26167,1.60051 2.41313,4.00948 5.61425,2.06356 3.2011,-1.94591 1.46767,-4.50586 0.57657,-6.03568 -0.37256,-0.63953 -0.77946,-1.24629 -1.2054,-1.85254 a 0.93717976,13.896563 54.771844 0 1 -2.5206,1.81035 0.93717976,13.896563 54.771844 0 1 -3.54467,2.44583 z"
         style="opacity:1;vector-effect:none;fill:#ffffff;fill-opacity:0.54275094;stroke:none;stroke-width:0.24264425;stroke-linecap:round;stroke-linejoin:round;stroke-miterlimit:4;stroke-dasharray:0.72793269, 0.72793269;stroke-dashoffset:0;stroke-opacity:1;paint-order:stroke fill markers" />
      <path
         inkscape:connector-curvature="0"
         id="path1006"
         d="m 217.75506,111.64825 c 0.18287,-0.63549 0.52453,-1.18879 0.98343,-1.52598 1.91295,-1.40526 5.53198,-2.08851 7.99037,-1.06441 4.54514,1.89338 3.43872,3.15108 6.44165,3.95278 0.64057,0.17111 1.3462,0.29597 2.08168,0.42129 a 0.93717976,13.896563 14.949582 0 0 -1.11459,4.00439 0.93717976,13.896563 14.949582 0 0 -0.77413,2.99364 c -0.73367,-0.20186 -1.49211,-0.40323 -2.30274,-0.58163 -2.8787,-0.63256 -2.77109,-0.0107 -8.06991,-1.26363 -2.87457,-0.67965 -5.16632,-3.87623 -5.35719,-5.36792 -0.0681,-0.53013 -0.0211,-1.07408 0.12144,-1.5683 z m 19.25919,2.09873 c 0.61818,0.12437 1.2393,0.27274 1.84552,0.46931 1.9386,0.62877 4.59732,0.87395 3.8815,4.55106 -0.71585,3.67711 -3.71793,2.93837 -5.46178,2.63273 -0.72901,-0.12778 -1.43916,-0.29934 -2.15549,-0.48864 a 0.93717976,13.896563 14.949582 0 0 0.82453,-2.99179 0.93717976,13.896563 14.949582 0 0 1.06572,-4.17267 z"
         style="opacity:1;vector-effect:none;fill:#ffffff;fill-opacity:0.54275094;stroke:none;stroke-width:0.24264425;stroke-linecap:round;stroke-linejoin:round;stroke-miterlimit:4;stroke-dasharray:0.72793269, 0.72793269;stroke-dashoffset:0;stroke-opacity:1;paint-order:stroke fill markers" />
      <path
         style="opacity:1;vector-effect:none;fill:#ffffff;fill-opacity:0.54275094;stroke:none;stroke-width:0.24264425;stroke-linecap:round;stroke-linejoin:round;stroke-miterlimit:4;stroke-dasharray:0.72793269, 0.72793269;stroke-dashoffset:0;stroke-opacity:1;paint-order:stroke fill markers"
         d="m 210.65351,91.074908 c -0.32833,0.574 -0.48765,1.20439 -0.40989,1.76857 0.32415,2.35138 2.35476,5.42398 4.8019,6.47459 4.52445,1.942372 4.65621,0.27242 7.32311,1.868642 0.56894,0.34046 1.15006,0.75976 1.75215,1.20037 a 0.93717976,13.896563 30.89986 0 1 2.09682,-3.588992 0.93717976,13.896563 30.89986 0 1 1.60872,-2.64065 c -0.65585,-0.38589 -1.32878,-0.78951 -2.02131,-1.24712 -2.45898,-1.62493 -1.93787,-1.98083 -6.52771,-4.9101 -2.48995,-1.5891 -6.37982,-1.00693 -7.58308,-0.10483 -0.42768,0.32063 -0.78531,0.73308 -1.04068,1.17954 z m 14.92077,12.356842 c 0.51986,0.35691 1.0589,0.6993 1.62223,0.9973 1.80145,0.95303 3.8293,2.6899 5.96907,-0.38503 2.13977,-3.07491 -0.48137,-4.714352 -1.91534,-5.752682 -0.59951,-0.43404 -1.21716,-0.82422 -1.852,-1.20624 a 0.93717976,13.896563 30.89986 0 1 -1.57234,2.67555 0.93717976,13.896563 30.89986 0 1 -2.25162,3.671102 z"
         id="path1008"
         inkscape:connector-curvature="0" />
    </g>
  </g>
</svg>
