<?xml version="1.0" encoding="UTF-8" standalone="no"?>
<!-- Created with Inkscape (http://www.inkscape.org/) -->

<svg
   xmlns:dc="http://purl.org/dc/elements/1.1/"
   xmlns:cc="http://creativecommons.org/ns#"
   xmlns:rdf="http://www.w3.org/1999/02/22-rdf-syntax-ns#"
   xmlns:svg="http://www.w3.org/2000/svg"
   xmlns="http://www.w3.org/2000/svg"
   xmlns:sodipodi="http://sodipodi.sourceforge.net/DTD/sodipodi-0.dtd"
   xmlns:inkscape="http://www.inkscape.org/namespaces/inkscape"
   width="297mm"
   height="210mm"
   viewBox="0 0 297 210"
   version="1.1"
   id="svg8"
   sodipodi:docname="menu_bg.svg"
   inkscape:version="0.92.4 (5da689c313, 2019-01-14)">
  <defs
     id="defs2" />
  <sodipodi:namedview
     id="base"
     pagecolor="#ffffff"
     bordercolor="#666666"
     borderopacity="1.0"
     inkscape:pageopacity="0.0"
     inkscape:pageshadow="2"
     inkscape:zoom="0.36660471"
     inkscape:cx="322.54545"
     inkscape:cy="305.24658"
     inkscape:document-units="mm"
     inkscape:current-layer="layer1"
     showgrid="false"
     inkscape:window-width="1920"
     inkscape:window-height="1046"
     inkscape:window-x="-11"
     inkscape:window-y="-11"
     inkscape:window-maximized="1"
     inkscape:snap-global="false"
     inkscape:snap-page="true" />
  <metadata
     id="metadata5">
    <rdf:RDF>
      <cc:Work
         rdf:about="">
        <dc:format>image/svg+xml</dc:format>
        <dc:type
           rdf:resource="http://purl.org/dc/dcmitype/StillImage" />
        <dc:title />
      </cc:Work>
    </rdf:RDF>
  </metadata>
  <g
     inkscape:label="Layer 1"
     inkscape:groupmode="layer"
     id="layer1"
     transform="translate(0,-87)">
    <g
       id="g886"
       transform="translate(0,-6.3500003)">
      <path
         inkscape:connector-curvature="0"
         id="path841"
         d="m 28.672332,279.01012 c -0.568243,-0.3382 -1.19579,-0.50838 -1.761213,-0.44042 -2.356625,0.28346 -5.46389,2.26066 -6.556612,4.68929 -2.020246,4.49019 -0.352828,4.65078 -1.99495,7.28967 -0.350303,0.56295 -0.779551,1.13677 -1.230477,1.73115 a 13.896563,0.93717976 31.890251 0 1 3.552206,2.15855 13.896563,0.93717976 31.890251 0 1 2.612452,1.65413 c 0.39718,-0.64908 0.812352,-1.31495 1.281879,-1.99944 1.66718,-2.43052 2.014022,-1.90335 5.022204,-6.44188 1.631905,-2.4621 1.117046,-6.36145 0.235887,-7.58014 -0.313196,-0.43314 -0.719404,-0.79784 -1.161511,-1.06075 z m -12.612904,14.70497 c -0.365808,0.5136 -0.717473,1.04664 -1.025181,1.60474 -0.98398,1.78471 -2.755684,3.78223 0.28179,5.97484 3.03746,2.19258 4.721983,-0.39983 5.784946,-1.81566 0.444344,-0.59187 0.845137,-1.2027 1.238042,-1.83084 a 13.896563,0.93717976 31.890251 0 1 -2.647957,-1.61834 13.896563,0.93717976 31.890251 0 1 -3.63164,-2.31474 z"
         style="opacity:1;vector-effect:none;fill:#ffffff;fill-opacity:0.54275094;stroke:none;stroke-width:0.24264425;stroke-linecap:round;stroke-linejoin:round;stroke-miterlimit:4;stroke-dasharray:0.72793269, 0.72793269;stroke-dashoffset:0;stroke-opacity:1;paint-order:stroke fill markers" />
      <path
         style="opacity:1;vector-effect:none;fill:#ffffff;fill-opacity:0.54275094;stroke:none;stroke-width:0.24264425;stroke-linecap:round;stroke-linejoin:round;stroke-miterlimit:4;stroke-dasharray:0.72793269, 0.72793269;stroke-dashoffset:0;stroke-opacity:1;paint-order:stroke fill markers"
         d="m 20.046782,244.97998 c 0.632247,0.19384 1.179573,0.54499 1.508795,1.00967 1.371957,1.93694 1.992546,5.56726 0.926133,8.00755 -1.971692,4.51171 -3.210055,3.38376 -4.06354,6.37236 -0.182112,0.63753 -0.319191,1.3409 -0.457001,2.07414 a 13.896563,0.93717976 15.939973 0 0 -3.984527,-1.18365 13.896563,0.93717976 15.939973 0 0 -2.979795,-0.82577 c 0.214414,-0.73011 0.429226,-1.48484 0.621334,-2.29236 0.682186,-2.86733 0.05863,-2.77049 1.402911,-8.04688 0.729257,-2.8624 3.964934,-5.09854 5.45972,-5.2636 0.531284,-0.0587 1.074295,-0.002 1.565966,0.14858 z m -2.431295,19.22005 c -0.135098,0.61591 -0.294058,1.23441 -0.501114,1.83714 -0.662178,1.92742 -0.953277,4.58153 -4.617485,3.80223 -3.6641958,-0.77928 -2.8736648,-3.76816 -2.5379178,-5.50645 0.1403278,-0.7267 0.3240368,-1.43381 0.5258128,-2.14672 a 13.896563,0.93717976 15.939973 0 0 2.977108,0.8761 13.896563,0.93717976 15.939973 0 0 4.153612,1.13767 z"
         id="path844"
         inkscape:connector-curvature="0" />
      <path
         inkscape:connector-curvature="0"
         id="path850"
         d="m 44.922489,224.55707 c -0.637968,-0.17406 -1.288163,-0.17037 -1.814859,0.0463 -2.195137,0.90301 -4.660996,3.63863 -5.064937,6.27096 -0.746815,4.86678 0.902842,4.57592 0.02576,7.5577 -0.18698,0.63613 -0.447377,1.30374 -0.723095,1.99702 a 13.896563,0.93717976 16.389724 0 1 3.999877,1.13072 13.896563,0.93717976 16.389724 0 1 2.959532,0.89573 c 0.209123,-0.73166 0.431612,-1.48416 0.700893,-2.26931 0.956986,-2.78767 1.432096,-2.37237 3.117935,-7.54974 0.914546,-2.80869 -0.62363,-6.4286 -1.798443,-7.36748 -0.417556,-0.33366 -0.906457,-0.57657 -1.402655,-0.71194 z M 36.6982,242.09796 c -0.215254,0.59266 -0.411597,1.20033 -0.559025,1.82034 -0.471234,1.98278 -1.644654,4.38113 1.868295,5.68222 3.512957,1.30109 4.443412,-1.64719 5.089311,-3.29562 0.27002,-0.68911 0.492965,-1.38483 0.703715,-2.09515 a 13.896563,0.93717976 16.389724 0 1 -2.98414,-0.85182 13.896563,0.93717976 16.389724 0 1 -4.118147,-1.26002 z"
         style="opacity:1;vector-effect:none;fill:#ffffff;fill-opacity:0.54275094;stroke:none;stroke-width:0.24264425;stroke-linecap:round;stroke-linejoin:round;stroke-miterlimit:4;stroke-dasharray:0.72793269, 0.72793269;stroke-dashoffset:0;stroke-opacity:1;paint-order:stroke fill markers" />
      <path
         style="opacity:1;vector-effect:none;fill:#ffffff;fill-opacity:0.54275094;stroke:none;stroke-width:0.24264425;stroke-linecap:round;stroke-linejoin:round;stroke-miterlimit:4;stroke-dasharray:0.72793269, 0.72793269;stroke-dashoffset:0;stroke-opacity:1;paint-order:stroke fill markers"
         d="m 23.110954,195.59058 c 0.654317,-0.0957 1.299315,-0.0134 1.795961,0.2653 2.0699,1.1617 4.186973,4.17537 4.269753,6.83724 0.15305,4.92135 -1.44936,4.43322 -0.939117,7.49915 0.108812,0.65405 0.286513,1.34825 0.476372,2.06978 a 0.93717976,13.896563 80.553123 0 0 -4.107247,0.63888 0.93717976,13.896563 80.553123 0 0 -3.046075,0.53148 c -0.119266,-0.75154 -0.248797,-1.52546 -0.421462,-2.33737 -0.612985,-2.88292 -1.134825,-2.5281 -2.182472,-7.87128 -0.568346,-2.89862 1.39617,-6.30607 2.675836,-7.09604 0.454833,-0.28079 0.969505,-0.46279 1.478444,-0.53719 z m 6.043649,18.4064 c 0.142058,0.61434 0.263564,1.24128 0.334926,1.87457 0.228076,2.0252 1.103008,4.54781 -2.541463,5.4147 -3.644459,0.86691 -4.211687,-2.17225 -4.653621,-3.88662 -0.184736,-0.7167 -0.321959,-1.43428 -0.445315,-2.16485 a 0.93717976,13.896563 80.553123 0 0 3.065232,-0.48488 0.93717976,13.896563 80.553123 0 0 4.24026,-0.75301 z"
         id="path852"
         inkscape:connector-curvature="0" />
      <path
         style="opacity:1;vector-effect:none;fill:#ffffff;fill-opacity:0.54275094;stroke:none;stroke-width:0.24264425;stroke-linecap:round;stroke-linejoin:round;stroke-miterlimit:4;stroke-dasharray:0.72793269, 0.72793269;stroke-dashoffset:0;stroke-opacity:1;paint-order:stroke fill markers"
         d="m 50.262078,168.39304 c -0.647043,-0.13642 -1.295956,-0.0941 -1.808949,0.15319 -2.138114,1.0308 -4.438396,3.90707 -4.686454,6.55865 -0.458599,4.90234 1.171041,4.51474 0.471242,7.54303 -0.149202,0.64604 -0.369751,1.32784 -0.603886,2.03623 a 13.896563,0.93717976 13.010107 0 1 4.059569,0.89298 13.896563,0.93717976 13.010107 0 1 3.007153,0.71978 c 0.165689,-0.74268 0.343423,-1.50699 0.565907,-2.30665 0.790955,-2.83926 1.289753,-2.45268 2.667449,-7.72043 0.747412,-2.8577 -1.001554,-6.38066 -2.229645,-7.24863 -0.436317,-0.30873 -0.938859,-0.52214 -1.442192,-0.62801 z m -7.175912,17.99521 c -0.179974,0.60433 -0.340144,1.22251 -0.450741,1.85013 -0.353532,2.00712 -1.383515,4.47047 2.20001,5.56221 3.583539,1.09172 4.338546,-1.90631 4.886177,-3.58991 0.228944,-0.70383 0.41036,-1.41152 0.57901,-2.13299 a 13.896563,0.93717976 13.010107 0 1 -3.029167,-0.67443 13.896563,0.93717976 13.010107 0 1 -4.18529,-1.01502 z"
         id="path854"
         inkscape:connector-curvature="0" />
      <path
         inkscape:connector-curvature="0"
         id="path856"
         d="m 23.40925,142.52986 c 0.641449,-0.16068 1.291437,-0.1434 1.813495,0.0842 2.175824,0.94859 4.583966,3.73519 4.932851,6.37538 0.644991,4.88133 -0.998256,4.55608 -0.183625,7.55552 0.173773,0.63986 0.420043,1.3128 0.681212,2.01169 a 0.93717976,13.896563 74.807129 0 0 -4.02262,1.04692 0.93717976,13.896563 74.807129 0 0 -2.977556,0.83377 c -0.193923,-0.73583 -0.400299,-1.4929 -0.653349,-2.28343 -0.898566,-2.80706 -1.382247,-2.40177 -2.959579,-7.61323 -0.855689,-2.82717 0.757796,-6.41418 1.951958,-7.3283 0.424435,-0.3249 0.918305,-0.55752 1.417232,-0.68249 z m 7.856102,17.70883 c 0.202804,0.59706 0.386533,1.20866 0.520892,1.83164 0.429732,1.99217 1.552792,4.41451 -1.986587,5.64194 -3.539354,1.22742 -4.407995,-1.73966 -5.019341,-3.40119 -0.255534,-0.69462 -0.463939,-1.39483 -0.659836,-2.10939 a 0.93717976,13.896563 74.807129 0 0 3.001304,-0.78929 0.93717976,13.896563 74.807129 0 0 4.143568,-1.17371 z"
         style="opacity:1;vector-effect:none;fill:#ffffff;fill-opacity:0.54275094;stroke:none;stroke-width:0.24264425;stroke-linecap:round;stroke-linejoin:round;stroke-miterlimit:4;stroke-dasharray:0.72793269, 0.72793269;stroke-dashoffset:0;stroke-opacity:1;paint-order:stroke fill markers" />
      <path
         style="opacity:1;vector-effect:none;fill:#ffffff;fill-opacity:0.54275094;stroke:none;stroke-width:0.24264425;stroke-linecap:round;stroke-linejoin:round;stroke-miterlimit:4;stroke-dasharray:0.72793269, 0.72793269;stroke-dashoffset:0;stroke-opacity:1;paint-order:stroke fill markers"
         d="m 43.853626,109.96108 c -0.659327,0.0506 -1.270275,0.27341 -1.693266,0.65468 -1.762917,1.58941 -3.163588,4.99562 -2.657552,7.61027 0.935584,4.83403 2.390963,4.00468 2.569125,7.10767 0.03809,0.66194 0.01774,1.37824 -0.0082,2.12387 a 0.93717976,13.896563 86.712117 0 1 4.147033,-0.28216 0.93717976,13.896563 86.712117 0 1 3.08831,-0.15304 c -0.04939,-0.75934 -0.09329,-1.54282 -0.10416,-2.37278 -0.03762,-2.94714 0.549625,-2.71605 0.393653,-8.15875 -0.08459,-2.95262 -2.751929,-5.84318 -4.174251,-6.33163 -0.50543,-0.17385 -1.04766,-0.23772 -1.560478,-0.19807 z m -1.837501,19.28586 c -0.0031,0.63056 0.0166,1.26885 0.08658,1.90229 0.22394,2.02567 -0.07336,4.67907 3.672542,4.72129 3.745908,0.0422 3.629229,-3.04725 3.682381,-4.81688 0.02222,-0.73979 -0.0023,-1.46996 -0.04285,-2.20976 a 0.93717976,13.896563 86.712117 0 1 -3.096705,0.20277 0.93717976,13.896563 86.712117 0 1 -4.301954,0.20029 z"
         id="path968"
         inkscape:connector-curvature="0" />
      <path
         inkscape:connector-curvature="0"
         id="path970"
         d="m 11.972658,94.711829 c 0.5997,-0.278626 1.241307,-0.384087 1.79689,-0.258912 2.315558,0.521767 5.205493,2.804869 6.045456,5.33207 1.552921,4.672453 -0.122179,4.662563 1.242872,7.454873 0.291189,0.59567 0.659809,1.21017 1.047952,1.84736 a 0.93717976,13.896563 63.949662 0 0 -3.753407,1.7859 0.93717976,13.896563 63.949662 0 0 -2.767201,1.37972 c -0.329045,-0.68613 -0.674344,-1.39077 -1.071777,-2.1195 -1.411234,-2.58755 -1.809917,-2.0984 -4.340673,-6.91945 -1.3729167,-2.61538 -0.4639867,-6.442106 0.536608,-7.564799 0.355638,-0.399039 0.796849,-0.720523 1.263302,-0.937232 z m 11.051218,15.912001 c 0.311645,0.54817 0.607283,1.11422 0.856582,1.70072 0.797297,1.87559 2.356543,4.043 -0.888269,5.91516 -3.244787,1.87215 -4.656783,-0.87821 -5.570157,-2.39482 -0.381807,-0.63406 -0.718381,-1.28248 -1.045359,-1.94734 a 0.93717976,13.896563 63.949662 0 0 2.798897,-1.34051 0.93717976,13.896563 63.949662 0 0 3.848306,-1.93321 z"
         style="opacity:1;vector-effect:none;fill:#ffffff;fill-opacity:0.54275094;stroke:none;stroke-width:0.24264425;stroke-linecap:round;stroke-linejoin:round;stroke-miterlimit:4;stroke-dasharray:0.72793269, 0.72793269;stroke-dashoffset:0;stroke-opacity:1;paint-order:stroke fill markers" />
    </g>
    <ellipse
       style="opacity:1;vector-effect:none;fill:#563e3e;fill-opacity:0.26470588;stroke:none;stroke-width:0.26987779;stroke-linecap:round;stroke-linejoin:round;stroke-miterlimit:4;stroke-dasharray:0.80963338, 0.80963338;stroke-dashoffset:0;stroke-opacity:1;paint-order:stroke fill markers"
       id="path914"
       cx="263.36044"
       cy="288.34537"
       rx="28.316673"
       ry="7.0459328" />
    <g
       transform="matrix(0.64272084,0,0,0.64272084,196.80141,132.54601)"
       id="g5621">
      <g
         id="g6022"
         transform="matrix(0.57306791,0,0,0.57306791,47.017714,40.885278)">
        <g
           id="g6014">
          <ellipse
             style="fill:#ffe0c3;fill-opacity:1;fill-rule:nonzero;stroke:none;stroke-width:1.10841036;stroke-linecap:round;stroke-linejoin:miter;stroke-miterlimit:4;stroke-dasharray:none;stroke-dashoffset:0;stroke-opacity:1;paint-order:fill markers stroke"
             id="ellipse6010"
             cx="31.165289"
             cy="108.46143"
             rx="6.2237687"
             ry="10.311403"
             transform="matrix(0.98257499,-0.18586658,0.19683946,0.98043573,0,0)" />
          <ellipse
             transform="matrix(0.97879627,-0.2048362,0.17855755,0.98392947,0,0)"
             ry="8.3664932"
             rx="4.598525"
             cy="109.70216"
             cx="34.243595"
             id="ellipse6012"
             style="fill:#e9c6af;fill-opacity:1;fill-rule:nonzero;stroke:none;stroke-width:0.85821474;stroke-linecap:round;stroke-linejoin:miter;stroke-miterlimit:4;stroke-dasharray:none;stroke-dashoffset:0;stroke-opacity:1;paint-order:fill markers stroke" />
        </g>
        <g
           transform="matrix(-1,0,0,1,194.27976,0)"
           id="g6020">
          <ellipse
             transform="matrix(0.98257499,-0.18586658,0.19683946,0.98043573,0,0)"
             ry="10.311403"
             rx="6.2237687"
             cy="108.46143"
             cx="31.165289"
             id="ellipse6016"
             style="fill:#ffe0c3;fill-opacity:1;fill-rule:nonzero;stroke:none;stroke-width:1.10841036;stroke-linecap:round;stroke-linejoin:miter;stroke-miterlimit:4;stroke-dasharray:none;stroke-dashoffset:0;stroke-opacity:1;paint-order:fill markers stroke" />
          <ellipse
             style="fill:#e9c6af;fill-opacity:1;fill-rule:nonzero;stroke:none;stroke-width:0.85821474;stroke-linecap:round;stroke-linejoin:miter;stroke-miterlimit:4;stroke-dasharray:none;stroke-dashoffset:0;stroke-opacity:1;paint-order:fill markers stroke"
             id="ellipse6018"
             cx="34.243595"
             cy="109.70216"
             rx="4.598525"
             ry="8.3664932"
             transform="matrix(0.97879627,-0.2048362,0.17855755,0.98392947,0,0)" />
        </g>
      </g>
      <path
         style="fill:#ffe0c3;fill-opacity:1;fill-rule:nonzero;stroke:none;stroke-width:0.4973276;stroke-linecap:round;stroke-linejoin:miter;stroke-miterlimit:4;stroke-dasharray:none;stroke-dashoffset:0;stroke-opacity:1;paint-order:fill markers stroke"
         d="m 95.455144,115.47763 0.6065,9.96395 -12.849091,3.03249 3.638986,12.67158 h 31.667841 l 3.63899,-12.67158 -12.84939,-3.03249 0.6065,-9.96395 z"
         id="path6038"
         inkscape:connector-curvature="0"
         sodipodi:nodetypes="ccccccccc" />
      <path
         id="path5453"
         transform="scale(0.26458333)"
         d="m 360.77539,436.45117 0.56055,9.21289 a 38.852825,21.363519 0 0 0 26.19531,5.6211 38.852825,21.363519 0 0 0 27.37305,-6.2168 l 0.52343,-8.61719 z"
         style="opacity:1;vector-effect:none;fill:#e9c6af;fill-opacity:0.23529412;stroke:none;stroke-width:2.74351048;stroke-linecap:round;stroke-linejoin:round;stroke-miterlimit:4;stroke-dasharray:8.23053101, 8.23053101;stroke-dashoffset:0;stroke-opacity:1;paint-order:stroke fill markers"
         inkscape:connector-curvature="0" />
      <path
         style="fill:#ffe0c3;fill-opacity:1;fill-rule:nonzero;stroke:none;stroke-width:2.0306313;stroke-linecap:square;stroke-linejoin:miter;stroke-miterlimit:4;stroke-dasharray:none;stroke-dashoffset:0;stroke-opacity:1;paint-order:fill markers stroke"
         d="m 127.48877,95.150604 c -0.43525,7.514286 -10.81197,22.899316 -24.7669,22.492506 -9.4195,-0.27459 -23.402649,-9.29611 -24.76688,-22.492506 -1.251485,-12.105789 7.297657,-21.248077 24.76688,-22.492533 16.96915,-1.208829 25.4933,9.951765 24.7669,22.492533 z"
         id="path6024"
         inkscape:connector-curvature="0"
         sodipodi:nodetypes="sssss" />
      <path
         sodipodi:nodetypes="cccscc"
         inkscape:connector-curvature="0"
         id="path6026"
         d="m 99.170789,106.45579 c -0.456043,-0.20616 -0.892562,-0.0683 -0.375573,0.7105 2.775474,3.00617 9.796694,0.7362 10.048934,-1.60566 0,-0.52753 -0.53184,-0.4221 -0.92999,-0.17339 -2.98267,1.86318 -5.73289,2.33006 -8.743371,1.06852 z"
         style="color:#000000;font-style:normal;font-variant:normal;font-weight:normal;font-stretch:normal;font-size:medium;line-height:normal;font-family:sans-serif;font-variant-ligatures:normal;font-variant-position:normal;font-variant-caps:normal;font-variant-numeric:normal;font-variant-alternates:normal;font-feature-settings:normal;text-indent:0;text-align:start;text-decoration:none;text-decoration-line:none;text-decoration-style:solid;text-decoration-color:#000000;letter-spacing:normal;word-spacing:normal;text-transform:none;writing-mode:lr-tb;direction:ltr;text-orientation:mixed;dominant-baseline:auto;baseline-shift:baseline;text-anchor:start;white-space:normal;shape-padding:0;clip-rule:nonzero;display:inline;overflow:visible;visibility:visible;opacity:1;isolation:auto;mix-blend-mode:normal;color-interpolation:sRGB;color-interpolation-filters:linearRGB;solid-color:#000000;solid-opacity:1;vector-effect:none;fill:#bc857e;fill-opacity:1;fill-rule:nonzero;stroke:none;stroke-width:0.79098046;stroke-linecap:round;stroke-linejoin:miter;stroke-miterlimit:4;stroke-dasharray:none;stroke-dashoffset:0;stroke-opacity:1;paint-order:fill markers stroke;color-rendering:auto;image-rendering:auto;shape-rendering:auto;text-rendering:auto;enable-background:accumulate" />
      <path
         style="color:#000000;font-style:normal;font-variant:normal;font-weight:normal;font-stretch:normal;font-size:medium;line-height:normal;font-family:sans-serif;font-variant-ligatures:normal;font-variant-position:normal;font-variant-caps:normal;font-variant-numeric:normal;font-variant-alternates:normal;font-feature-settings:normal;text-indent:0;text-align:start;text-decoration:none;text-decoration-line:none;text-decoration-style:solid;text-decoration-color:#000000;letter-spacing:normal;word-spacing:normal;text-transform:none;writing-mode:lr-tb;direction:ltr;text-orientation:mixed;dominant-baseline:auto;baseline-shift:baseline;text-anchor:start;white-space:normal;shape-padding:0;clip-rule:nonzero;display:inline;overflow:visible;visibility:visible;opacity:1;isolation:auto;mix-blend-mode:normal;color-interpolation:sRGB;color-interpolation-filters:linearRGB;solid-color:#000000;solid-opacity:1;vector-effect:none;fill:#c3ab9c;fill-opacity:1;fill-rule:nonzero;stroke:none;stroke-width:0.57703716;stroke-linecap:round;stroke-linejoin:miter;stroke-miterlimit:4;stroke-dasharray:none;stroke-dashoffset:0;stroke-opacity:1;paint-order:fill markers stroke;color-rendering:auto;image-rendering:auto;shape-rendering:auto;text-rendering:auto;enable-background:accumulate"
         d="m 99.869686,100.35762 c -0.161772,0.003 -0.295282,0.10569 -0.309732,0.23951 -0.05029,0.41213 0.103469,0.78006 0.391869,1.0566 0.288447,0.27654 0.691437,0.47137 1.152717,0.63015 0.95442,0.32853 2.1103,0.33965 3.08241,0.0314 0.97212,-0.3083 1.64289,-0.91896 1.64289,-1.63414 -0.26802,-0.52975 -1.48468,0.39875 -2.94277,0.41173 -1.45808,0.0132 -2.4797,-0.72717 -3.017384,-0.73517 z"
         id="path6028"
         inkscape:connector-curvature="0"
         sodipodi:nodetypes="cccccczcc" />
      <path
         inkscape:connector-curvature="0"
         id="path6036"
         d="M 83.834847,67.781078 C 80.736483,70.535023 73.10795,80.3172 76.106631,92.46423 c 0.629296,2.549142 0.431426,-2.595174 1.112362,4.441273 8.764228,-13.465489 -0.61723,-8.000219 9.752357,-16.893152 12.841653,8.899689 21.01537,-1.728149 34.08397,11.217955 -0.0113,-1.566354 0.43762,-5.771489 -0.16868,-6.056805 0,0 4.51734,8.530058 6.75968,10.301412 l 2.17008,-2.996209 c 2.89393,-3.995619 3.05876,-14.559351 -5.69387,-24.274083 -6.02194,-6.683858 -28.144777,-11.216617 -40.287683,-0.423543 z"
         style="fill:#c69f52;fill-opacity:1;fill-rule:nonzero;stroke:none;stroke-width:0.85732925;stroke-linecap:round;stroke-linejoin:miter;stroke-miterlimit:4;stroke-dasharray:none;stroke-dashoffset:0;stroke-opacity:1;paint-order:fill markers stroke"
         sodipodi:nodetypes="sscccccsss" />
      <path
         inkscape:connector-curvature="0"
         id="path5382"
         d="m 81.727827,98.797838 a 7.1723876,7.1723876 0 0 0 -2.301152,0.388607 c 0.0177,0.704511 0.06194,1.394385 0.13126,2.069635 1.622578,3.7821 4.269795,7.04714 7.36079,9.64903 a 7.1723876,7.1723876 0 0 0 1.98179,-4.9351 7.1723876,7.1723876 0 0 0 -7.172688,-7.172172 z"
         style="fill:#e9c6af;fill-opacity:0.23529412;fill-rule:nonzero;stroke:none;stroke-width:2.0306313;stroke-linecap:square;stroke-linejoin:miter;stroke-miterlimit:4;stroke-dasharray:none;stroke-dashoffset:0;stroke-opacity:1;paint-order:fill markers stroke" />
      <path
         sodipodi:nodetypes="ccccscc"
         inkscape:transform-center-y="-33.714864"
         inkscape:transform-center-x="-6.5615645"
         style="fill:#ffe0c3;fill-opacity:1;fill-rule:nonzero;stroke:none;stroke-width:0.44039556;stroke-linecap:round;stroke-linejoin:miter;stroke-miterlimit:4;stroke-dasharray:none;stroke-dashoffset:0;stroke-opacity:1;paint-order:fill markers stroke"
         d="m 89.717522,132.99965 -11.755589,-7.17793 5.841162,-16.19452 c 0.56302,-0.18812 -2.816615,-2.14751 -6.080395,1.16609 -2.246004,6.81137 -6.733214,12.72858 -6.968237,18.17794 -0.172509,3.99987 16.922276,7.59096 16.633442,13.09613 z"
         id="path6066"
         inkscape:connector-curvature="0" />
      <g
         id="g6064"
         transform="matrix(0.46892045,0,0,0.29916949,54.353212,68.663973)">
        <ellipse
           transform="matrix(0.99965481,0.02627285,0.01934142,0.99981294,0,0)"
           ry="6.5890012"
           rx="9.1949368"
           cy="106.22066"
           cx="68.934364"
           id="ellipse6060"
           style="fill:#f89d94;fill-opacity:0.42279436;fill-rule:nonzero;stroke:none;stroke-width:0.77658826;stroke-linecap:round;stroke-linejoin:miter;stroke-miterlimit:4;stroke-dasharray:none;stroke-dashoffset:0;stroke-opacity:1;paint-order:fill markers stroke" />
        <ellipse
           style="fill:#f89d94;fill-opacity:0.42279436;fill-rule:nonzero;stroke:none;stroke-width:0.77658826;stroke-linecap:round;stroke-linejoin:miter;stroke-miterlimit:4;stroke-dasharray:none;stroke-dashoffset:0;stroke-opacity:1;paint-order:fill markers stroke"
           id="ellipse6062"
           cx="-133.79755"
           cy="111.54801"
           rx="9.1949368"
           ry="6.5890012"
           transform="matrix(-0.99965481,0.02627285,-0.01934142,0.99981294,0,0)" />
      </g>
      <path
         sodipodi:nodetypes="cccccccccccccccc"
         inkscape:transform-center-y="27.9717"
         inkscape:transform-center-x="-12.106251"
         style="fill:#ffe0c3;fill-opacity:1;fill-rule:nonzero;stroke:none;stroke-width:0.37670135;stroke-linecap:round;stroke-linejoin:miter;stroke-miterlimit:4;stroke-dasharray:none;stroke-dashoffset:0;stroke-opacity:1;paint-order:fill markers stroke"
         d="m 121.56955,130.71572 -6.3899,3.8699 c 5.20151,18.82264 8.68359,25.00382 15.20855,34.96952 0.18673,0.39834 0.36991,0.773 0.56154,1.03056 -0.23762,1.0796 -3.4672,3.55755 -5.06192,4.73435 -0.34296,0.25647 0.17888,1.00968 0.64477,1.36708 0.46589,0.35742 1.50445,0.29794 1.8474,0.0415 1.30919,-0.86018 1.84761,-0.69133 2.66926,-1.14145 1.55344,3.2637 2.2131,3.28956 3.03086,4.88329 0.92012,1.62689 1.40026,5.16682 2.19296,5.41617 1.15338,0.3628 1.45271,-0.27386 1.93745,-1.35827 1.69081,0.55331 2.7453,-8.83503 2.0166,-9.41204 l -3.82184,-4.73355 c -0.007,-0.0182 -0.0204,-0.0349 -0.0404,-0.0477 -1.32993,-0.83646 -1.91669,-1.64901 -2.3123,-2.56742 z"
         id="path6068"
         inkscape:connector-curvature="0" />
      <path
         sodipodi:nodetypes="sssssssss"
         inkscape:connector-curvature="0"
         id="rect4771"
         d="m 90.732387,200.7312 h 21.018223 c 0.50417,0 0.91006,0.67799 0.91006,1.52015 v 19.60991 c 0,0.84216 -0.40933,1.68167 -0.91006,1.52015 -6.84736,-2.20871 -13.273491,-1.27778 -21.018223,0 -0.520487,0.0859 -0.910059,-0.67799 -0.910059,-1.52015 v -19.60991 c 0,-0.84216 0.405886,-1.52015 0.910059,-1.52015 z"
         style="opacity:1;vector-effect:none;fill:#b09684;fill-opacity:1;stroke:none;stroke-width:0.63193381;stroke-linecap:round;stroke-linejoin:round;stroke-miterlimit:4;stroke-dasharray:1.89580145, 1.89580145;stroke-dashoffset:0;stroke-opacity:1;paint-order:stroke fill markers" />
      <g
         id="g6074"
         transform="matrix(0.57306791,0,0,0.57306791,46.566765,39.825141)">
        <path
           sodipodi:nodetypes="ccccc"
           inkscape:connector-curvature="0"
           id="path6070"
           d="m 71.32825,259.76936 h 20.450059 c 0.454908,24.92477 -2.18038,61.14459 -3.659485,78.80803 H 74.341944 C 72.057433,300.338 72.115567,285.80615 71.32825,259.76936 Z"
           style="fill:#ffe0c3;fill-opacity:1;fill-rule:nonzero;stroke:none;stroke-width:0.28862327;stroke-linecap:round;stroke-linejoin:miter;stroke-miterlimit:4;stroke-dasharray:none;stroke-dashoffset:0;stroke-opacity:1;paint-order:fill markers stroke" />
        <path
           style="fill:#ffe0c3;fill-opacity:1;fill-rule:nonzero;stroke:none;stroke-width:0.28862327;stroke-linecap:round;stroke-linejoin:miter;stroke-miterlimit:4;stroke-dasharray:none;stroke-dashoffset:0;stroke-opacity:1;paint-order:fill markers stroke"
           d="m 124.52531,259.76936 h -20.45006 c -0.45491,24.92477 2.18038,61.14459 3.65949,78.80803 h 13.77688 c 2.28451,-38.23939 2.22637,-52.77124 3.01369,-78.80803 z"
           id="path6072"
           inkscape:connector-curvature="0"
           sodipodi:nodetypes="ccccc" />
      </g>
      <path
         sodipodi:nodetypes="cscsc"
         inkscape:connector-curvature="0"
         id="path6076"
         d="m 97.443038,230.6276 c 1.069031,-0.58023 0.953728,5.07927 -3.997883,5.24526 -5.678993,0.19037 -5.68598,-4.64607 -4.650755,-4.9772 0.749355,-0.19354 0.06444,2.14439 4.427666,1.91373 3.405651,-0.18005 3.459023,-1.30545 4.220972,-2.18179 z"
         style="fill:#ffffff;fill-opacity:1;fill-rule:nonzero;stroke:none;stroke-width:0.29654026;stroke-linecap:round;stroke-linejoin:miter;stroke-miterlimit:4;stroke-dasharray:none;stroke-dashoffset:0;stroke-opacity:1;paint-order:fill markers stroke" />
      <path
         style="fill:#ffffff;fill-opacity:1;fill-rule:nonzero;stroke:none;stroke-width:0.29654026;stroke-linecap:round;stroke-linejoin:miter;stroke-miterlimit:4;stroke-dasharray:none;stroke-dashoffset:0;stroke-opacity:1;paint-order:fill markers stroke"
         d="m 108.2204,230.6276 c -1.06903,-0.58023 -0.95373,5.07927 3.99788,5.24526 5.679,0.19037 5.68598,-4.64607 4.65076,-4.9772 -0.74936,-0.19354 -0.0644,2.14439 -4.42767,1.91373 -3.40566,-0.18005 -3.45902,-1.30545 -4.22097,-2.18179 z"
         id="path6078"
         inkscape:connector-curvature="0"
         sodipodi:nodetypes="cscsc" />
      <g
         style="stroke-width:1.03511548"
         transform="matrix(0.72727808,0,0,0.77925238,246.11852,-113.80681)"
         id="g1340">
        <path
           style="fill:#333333;fill-opacity:1;fill-rule:nonzero;stroke:none;stroke-width:0.53588945;stroke-linecap:round;stroke-linejoin:miter;stroke-miterlimit:4;stroke-dasharray:none;stroke-dashoffset:0;stroke-opacity:1;paint-order:fill markers stroke"
           d="m -192.14311,454.2533 c 7.15108,3.06847 16.18431,7.82127 20.1513,7.64702 1.84394,-0.234 4.63397,-0.54692 6.25821,-1.70361 1.48623,-2.11458 0.53168,-3.78256 0.30817,-5.69072 -1.87549,-6.93946 -12.38356,-9.53666 -15.62955,-12.38218 -1.39677,-1.42788 -3.30106,-2.31849 -5.3364,-2.31849 -1.99476,0 -4.64796,0.96889 -5.91625,2.34715 -0.31817,0.85288 -0.88458,7.93668 -0.87956,11.23386 8e-4,0.52321 0.57637,0.78173 1.04408,0.86697 z"
           id="path1338"
           inkscape:connector-curvature="0"
           sodipodi:nodetypes="cccccscsc" />
        <path
           sodipodi:nodetypes="cccccscsc"
           inkscape:connector-curvature="0"
           id="path4769"
           d="m -202.44906,454.2533 c -7.15108,3.06847 -16.18431,7.82127 -20.1513,7.64702 -1.84394,-0.234 -4.63397,-0.54692 -6.25821,-1.70361 -1.48623,-2.11458 -0.53168,-3.78256 -0.30817,-5.69072 1.87549,-6.93946 12.38356,-9.53666 15.62955,-12.38218 1.39677,-1.42788 3.30106,-2.31849 5.3364,-2.31849 1.99476,0 4.64796,0.96889 5.91625,2.34715 0.31817,0.85288 0.88458,7.93668 0.87956,11.23386 -8e-4,0.52321 -0.57637,0.78173 -1.04408,0.86697 z"
           style="fill:#333333;fill-opacity:1;fill-rule:nonzero;stroke:none;stroke-width:0.53588945;stroke-linecap:round;stroke-linejoin:miter;stroke-miterlimit:4;stroke-dasharray:none;stroke-dashoffset:0;stroke-opacity:1;paint-order:fill markers stroke" />
      </g>
      <g
         transform="matrix(1.4678836,0,0,2.4346301,-126.65765,-229.76454)"
         id="g6084"
         style="fill:#216778">
        <g
           id="g6082"
           style="fill:#216778">
          <path
             style="fill:#6f4f49;fill-opacity:1;fill-rule:nonzero;stroke:none;stroke-width:4.38441706;stroke-linecap:round;stroke-linejoin:miter;stroke-miterlimit:4;stroke-dasharray:none;stroke-dashoffset:0;stroke-opacity:1;paint-order:fill markers stroke"
             d="m 735.62775,629.11328 -1.88712,103.40039 c 11.41361,7.96052 23.7928,5.57125 33.20896,1.50977 1.92603,-18.92086 7.34105,-68.24038 8.32971,-79.38839 0.98865,11.14801 6.40367,60.46752 8.3297,79.38839 9.41617,4.06148 21.79535,6.45075 33.20896,-1.50977 l -3.24963,-103.40039 -38.28903,6.61719 z"
             transform="matrix(0.26458333,0,0,0.26458333,-48.947917,-3.7797619)"
             id="path6080"
             inkscape:connector-curvature="0"
             sodipodi:nodetypes="ccccccccc" />
        </g>
      </g>
      <path
         sodipodi:nodetypes="cccccccccccccccccc"
         inkscape:connector-curvature="0"
         style="fill:#e5e5e5;fill-opacity:1;fill-rule:nonzero;stroke:none;stroke-width:0.5166713;stroke-linecap:round;stroke-linejoin:miter;stroke-miterlimit:4;stroke-dasharray:none;stroke-dashoffset:0;stroke-opacity:1;paint-order:fill markers stroke"
         d="m 96.159107,125.43676 -2.043256,0.39637 -10.281562,2.68379 c -0.02225,0.006 -0.04464,0.0137 -0.06698,0.023 l -0.589639,0.66217 c -0.0017,0.002 -0.0031,0.006 -0.0047,0.009 l 19.3288,38.57197 19.32882,-38.57155 c -0.002,-0.003 -0.004,-0.007 -0.006,-0.0106 l -0.58796,-0.66089 c -0.0226,-0.01 -0.0449,-0.0175 -0.0674,-0.023 l -10.28156,-2.68378 -2.04325,-0.39594 c -2.19138,2.4692 -3.15502,4.95121 -6.01842,5.74109 -0.1048,-0.002 -0.21553,0.008 -0.32427,-0.0179 -0.10872,0.026 -0.21945,0.0154 -0.32425,0.0179 -2.863392,-0.78988 -3.827031,-3.27231 -6.018412,-5.74152 z"
         id="path1396" />
      <rect
         y="137.19664"
         x="88.408577"
         height="32.505951"
         width="28.093994"
         id="rect4721"
         style="opacity:1;vector-effect:none;fill:#e5e5e5;fill-opacity:1;stroke:none;stroke-width:0.65245366;stroke-linecap:round;stroke-linejoin:round;stroke-miterlimit:4;stroke-dasharray:1.95736098, 1.95736098;stroke-dashoffset:0;stroke-opacity:1;paint-order:stroke fill markers" />
      <path
         style="opacity:1;vector-effect:none;fill:#982600;fill-opacity:1;fill-rule:nonzero;stroke:none;stroke-width:1.0733192;stroke-linecap:round;stroke-linejoin:round;stroke-miterlimit:4;stroke-dasharray:none;stroke-dashoffset:0;stroke-opacity:1;paint-order:normal"
         d="m 98.019574,131.42192 c -0.0213,0.2031 0.04301,0.4133 0.199249,0.56958 l 3.401727,3.40174 -3.898352,32.36401 4.965852,4.96584 4.96542,-4.96584 -3.89793,-32.36401 3.40173,-3.40174 c 0.15628,-0.15628 0.22053,-0.36648 0.19925,-0.56958 z"
         id="rect1109"
         inkscape:connector-curvature="0" />
      <path
         transform="scale(0.26458333)"
         sodipodi:nodetypes="ccccssccccscc"
         inkscape:connector-curvature="0"
         id="path4697"
         d="m 355.06836,474.10938 c -16.61657,3.11459 -22.62409,11.99973 -51.887,6.32442 -2.33489,-2.21188 11.69161,-57.38007 11.69161,-57.38007 -6.3726,1.97401 -5.27504,3.03911 -24.77016,-1.25156 0.11654,1.1652 -25.99628,50.8323 -31.9193,66.63416 -1.55274,4.14249 0.77924,13.3829 0.96233,13.65124 7.65119,11.21342 55.65245,24.08378 60.96987,42.45336 -4.5001,13.31234 -0.66187,68.24694 7.43565,83.93534 -24.86018,78.52082 -13.48346,136.33483 -20.22519,204.50224 4.19964,11.35959 27.44485,16.23629 65.87305,15.23242 -0.93485,-4.19472 -1.54235,-8.55376 -1.44336,-13.03711 l 5.4778,-248.09913 C 366.05522,534.33537 358.53977,479.32393 355.06836,474.10938 Z"
         style="fill:#e9c6af;fill-opacity:1;fill-rule:nonzero;stroke:none;stroke-width:2.36519122;stroke-linecap:round;stroke-linejoin:miter;stroke-miterlimit:4;stroke-dasharray:none;stroke-dashoffset:0;stroke-opacity:1;paint-order:fill markers stroke" />
      <rect
         style="opacity:1;vector-effect:none;fill:#d2b39e;fill-opacity:1;stroke:none;stroke-width:0.19427198;stroke-linecap:round;stroke-linejoin:round;stroke-miterlimit:4;stroke-dasharray:0.58281592, 0.58281592;stroke-dashoffset:0;stroke-opacity:1;paint-order:stroke fill markers"
         id="rect5387"
         width="10.254876"
         height="11.014257"
         x="-105.84689"
         y="167.79366"
         ry="0.96999842"
         transform="matrix(-0.99859934,-0.05290888,-0.05290888,0.99859934,0,0)" />
      <path
         sodipodi:nodetypes="cccc"
         inkscape:connector-curvature="0"
         id="path1622"
         d="m 98.356113,136.08369 -2.197037,-10.64681 6.342544,5.72339 z"
         inkscape:transform-center-y="-1.2312147"
         inkscape:transform-center-x="-1.1115232"
         style="opacity:1;fill:#f6f6f6;fill-opacity:1;fill-rule:nonzero;stroke:none;stroke-width:1.87005234;stroke-linecap:round;stroke-linejoin:round;stroke-miterlimit:4;stroke-dasharray:none;stroke-dashoffset:0;stroke-opacity:1;paint-order:normal" />
      <path
         sodipodi:nodetypes="cccccc"
         inkscape:connector-curvature="0"
         id="path4702"
         d="m 99.809738,155.33018 -10.418952,-21.59006 5.111628,-2.86253 -10.492234,-7.11481 c 8.082421,-2.28396 3.537374,-4.34279 11.66321,-4.69968 2.11845,8.19296 4.145322,23.96394 4.136348,36.26708 z"
         inkscape:transform-center-y="-5.9802504"
         style="opacity:1;vector-effect:none;fill:#d1b19d;fill-opacity:1;stroke:none;stroke-width:0.72588712;stroke-linecap:round;stroke-linejoin:round;stroke-miterlimit:4;stroke-dasharray:2.17766133, 2.17766133;stroke-dashoffset:0;stroke-opacity:1;paint-order:stroke fill markers" />
      <path
         style="opacity:1;fill:#f6f6f6;fill-opacity:1;fill-rule:nonzero;stroke:none;stroke-width:1.87005234;stroke-linecap:round;stroke-linejoin:round;stroke-miterlimit:4;stroke-dasharray:none;stroke-dashoffset:0;stroke-opacity:1;paint-order:normal"
         inkscape:transform-center-x="-1.111524"
         inkscape:transform-center-y="-1.2312142"
         d="m 106.64711,136.08369 2.19704,-10.64671 -6.34253,5.72329 z"
         id="path1227"
         inkscape:connector-curvature="0"
         sodipodi:nodetypes="cccc" />
      <path
         sodipodi:nodetypes="cccscccccccccc"
         inkscape:connector-curvature="0"
         id="path4743"
         transform="scale(0.26458333)"
         d="m 377.14534,569.27452 c -5.65334,6.30617 -13.59989,16.42439 -16.13129,26.74174 -9.68993,27.24072 7.9915,39.12987 6.8922,37.03062 0,0 -5.53558,8.67194 -6.59444,13.59649 -9.02564,41.97647 3.60616,128.75702 3.60616,128.75702 l 7.14648,45.82813 5.16993,-234.1543 c -1.1158,-5.26426 0.95339,-12.54195 -0.089,-17.7997 z m -4.13557,277.98525 c -0.0719,0.3157 -0.14501,0.6378 -0.21485,0.95117 0.0759,0.002 0.12206,0.002 0.19727,0.004 0.0707,-0.002 0.13627,-0.002 0.20703,-0.004 -0.07,-0.31405 -0.12329,-0.6353 -0.18945,-0.95117 z"
         style="fill:#847063;fill-opacity:0.34944243;fill-rule:nonzero;stroke:none;stroke-width:2.36519122;stroke-linecap:round;stroke-linejoin:miter;stroke-miterlimit:4;stroke-dasharray:none;stroke-dashoffset:0;stroke-opacity:1;paint-order:fill markers stroke" />
      <path
         style="fill:#e9c6af;fill-opacity:1;fill-rule:nonzero;stroke:none;stroke-width:0.62579018;stroke-linecap:round;stroke-linejoin:miter;stroke-miterlimit:4;stroke-dasharray:none;stroke-dashoffset:0;stroke-opacity:1;paint-order:fill markers stroke"
         d="m 111.36977,125.44144 10.73268,3.03237 c 1.79798,0.43904 14.44706,37.9256 14.44706,37.9256 0.007,1.33021 -1.55341,2.76034 -6.10067,4.22775 -4.05059,-2.02913 -12.34871,-27.18234 -10.97948,-24.12652 1.77938,1.16731 1.34328,15.55339 -0.81905,19.78371 6.57759,20.7753 3.5675,36.07192 5.35125,54.10788 -0.80542,2.17857 -8.42883,3.45594 -16.4352,3.89279 -3.03921,0.16583 -4.01694,0.21054 -6.81454,0.13746 0.24734,-1.10986 0.56468,-2.27707 0.38189,-3.44941 l -2.465853,-15.81503 -1.326011,-37.6646 c 0.327172,0.4949 -1.977063,-5.33843 -0.384688,-10.92684 4.989682,-2.26969 13.494172,-29.74527 14.412612,-31.12516 z"
         id="path4734"
         inkscape:connector-curvature="0"
         sodipodi:nodetypes="cccccccscscccc" />
      <path
         style="opacity:1;vector-effect:none;fill:#d1b19d;fill-opacity:1;stroke:none;stroke-width:0.72588712;stroke-linecap:round;stroke-linejoin:round;stroke-miterlimit:4;stroke-dasharray:2.17766133, 2.17766133;stroke-dashoffset:0;stroke-opacity:1;paint-order:stroke fill markers"
         inkscape:transform-center-y="-5.9802504"
         d="m 96.957158,156.5666 c 6.404402,-5.19353 13.594202,-16.37209 18.966992,-22.82648 l -5.11162,-2.86253 10.49223,-7.11481 c -8.08242,-2.28396 -3.48169,-4.34279 -11.60753,-4.69968 -0.80778,11.12634 -7.42559,27.58431 -12.740072,37.5035 z"
         id="path4736"
         inkscape:connector-curvature="0"
         sodipodi:nodetypes="cccccc" />
      <path
         sodipodi:nodetypes="sssssssss"
         inkscape:connector-curvature="0"
         id="rect4750"
         d="m 86.427662,165.483 c 11.27898,1.24056 21.974298,0.9636 32.405528,0 0.41713,-0.0385 0.75616,0.33344 0.75616,0.74762 v 1.72699 c 0,0.41418 -0.33856,0.71455 -0.75616,0.74762 -10.18165,0.80624 -20.547477,1.37307 -32.405528,0 -0.416129,-0.0482 -0.756153,-0.33344 -0.756153,-0.74762 v -1.72699 c 0,-0.41418 0.339755,-0.79342 0.756153,-0.74762 z"
         style="opacity:1;vector-effect:none;fill:#986556;fill-opacity:1;stroke:none;stroke-width:0.45245743;stroke-linecap:round;stroke-linejoin:round;stroke-miterlimit:4;stroke-dasharray:1.35737228, 1.35737228;stroke-dashoffset:0;stroke-opacity:1;paint-order:stroke fill markers" />
      <path
         inkscape:connector-curvature="0"
         id="path1391"
         d="m 98.775354,165.65116 c -0.54614,0 -0.98599,0.39178 -0.98599,0.87826 v 2.65735 c 0,0.48647 0.43985,0.8778 0.98599,0.8778 h 8.275456 c 0.54614,0 0.98599,-0.39133 0.98599,-0.8778 v -2.65735 c 0,-0.48648 -0.43985,-0.87826 -0.98599,-0.87826 z m 0.43046,0.65915 h 7.414536 c 0.38296,0 0.69091,0.27477 0.69091,0.61589 v 1.86333 c 0,0.34112 -0.30795,0.61589 -0.69091,0.61589 h -7.414536 c -0.38296,0 -0.69091,-0.27477 -0.69091,-0.61589 v -1.86333 c 0,-0.34112 0.30795,-0.61589 0.69091,-0.61589 z"
         style="opacity:1;vector-effect:none;fill:#f3c200;fill-opacity:1;fill-rule:nonzero;stroke:none;stroke-width:0.4388645;stroke-linecap:round;stroke-linejoin:round;stroke-miterlimit:4;stroke-dasharray:none;stroke-dashoffset:0;stroke-opacity:1;paint-order:normal" />
      <rect
         transform="rotate(-3.0328715)"
         ry="0.96999842"
         y="178.64091"
         x="98.883636"
         height="11.014257"
         width="10.254876"
         id="rect5385"
         style="opacity:1;vector-effect:none;fill:#d2b39e;fill-opacity:1;stroke:none;stroke-width:0.19427198;stroke-linecap:round;stroke-linejoin:round;stroke-miterlimit:4;stroke-dasharray:0.58281592, 0.58281592;stroke-dashoffset:0;stroke-opacity:1;paint-order:stroke fill markers" />
      <g
         transform="matrix(1.0243141,0,0,1.0243141,89.908061,-29.933806)"
         id="g5433">
        <ellipse
           ry="5.3992906"
           rx="36.732548"
           cy="105.74163"
           cx="12.776538"
           id="ellipse5417"
           style="opacity:1;vector-effect:none;fill:#d8b8a2;fill-opacity:1;stroke:none;stroke-width:0.59533417;stroke-linecap:round;stroke-linejoin:round;stroke-miterlimit:4;stroke-dasharray:1.78600247, 1.78600247;stroke-dashoffset:0;stroke-opacity:1;paint-order:stroke fill markers" />
        <path
           style="opacity:1;vector-effect:none;fill:#cbac98;fill-opacity:1;stroke:none;stroke-width:0.97824627;stroke-linecap:round;stroke-linejoin:round;stroke-miterlimit:4;stroke-dasharray:2.93473871, 2.93473871;stroke-dashoffset:0;stroke-opacity:1;paint-order:stroke fill markers"
           d="M 12.776537,84.899315 C 8.1575127,84.899299 8.9260657,80.45772 1.0583334,81.394468 -8.0527216,82.47925 -14.373779,97.614713 -14.373743,105.15234 c 20.1308259,6.09192 37.54687,4.03949 54.300562,0 3.7e-5,-7.673263 -7.08979,-18.027293 -15.896471,-21.288122 -3.695569,-1.368349 -6.821492,1.035081 -11.253811,1.035097 z"
           id="path5415"
           inkscape:connector-curvature="0"
           sodipodi:nodetypes="csccsc" />
        <path
           style="opacity:1;vector-effect:none;fill:#986556;fill-opacity:1;stroke:none;stroke-width:0.98472613;stroke-linecap:round;stroke-linejoin:round;stroke-miterlimit:4;stroke-dasharray:2.9541782, 2.9541782;stroke-dashoffset:0;stroke-opacity:1;paint-order:stroke fill markers"
           d="m 39.497474,99.960304 a 37.220788,10.879558 0 0 1 -27.206401,3.474726 37.220788,10.879558 0 0 1 -26.316225,-3.19464 c -0.461489,1.71127 -0.70953,3.37897 -0.709522,4.91185 20.3983992,6.09192 38.045932,4.03949 55.022311,0 8e-6,-1.62123 -0.275636,-3.38629 -0.790163,-5.191936 z"
           id="path5427"
           inkscape:connector-curvature="0" />
      </g>
      <g
         id="g6054"
         transform="matrix(-0.57306791,0,0,0.57306791,161.80535,38.51183)">
        <path
           style="fill:#ffffff;fill-opacity:1;fill-rule:nonzero;stroke:none;stroke-width:4.15143585;stroke-linecap:square;stroke-linejoin:miter;stroke-miterlimit:4;stroke-dasharray:none;stroke-dashoffset:0;stroke-opacity:1;paint-order:fill markers stroke"
           d="m 90.386422,98.853162 c -3.42131,2.678618 -12.064462,2.092488 -14.57713,-0.403179 -1.469706,-1.443491 -1.615161,-3.65392 -1.16936,-4.842362 0.729364,-1.94438 3.384133,-2.524229 6.953605,-2.702562 7.517511,-0.375579 9.881437,3.816153 8.792885,7.948103 z"
           id="path6048"
           inkscape:connector-curvature="0"
           sodipodi:nodetypes="ccssc" />
        <circle
           style="fill:#000000;fill-opacity:1;fill-rule:nonzero;stroke:none;stroke-width:4.22074223;stroke-linecap:square;stroke-linejoin:miter;stroke-miterlimit:4;stroke-dasharray:none;stroke-dashoffset:0;stroke-opacity:1;paint-order:fill markers stroke"
           id="circle6050"
           cx="82.61142"
           cy="96.12928"
           r="4.2758555" />
        <circle
           cy="94.664619"
           cx="80.867027"
           id="circle6052"
           style="fill:#ffffff;fill-opacity:1;fill-rule:nonzero;stroke:none;stroke-width:1.00271761;stroke-linecap:square;stroke-linejoin:miter;stroke-miterlimit:4;stroke-dasharray:none;stroke-dashoffset:0;stroke-opacity:1;paint-order:fill markers stroke"
           r="1.0158108" />
      </g>
      <g
         transform="translate(0.17275407,-0.83838011)"
         id="g5443">
        <g
           transform="matrix(0.6969201,0,0,0.63268424,32.935008,37.652527)"
           id="g6034"
           style="fill:#c69f52;fill-opacity:1">
          <path
             sodipodi:nodetypes="czcscc"
             inkscape:connector-curvature="0"
             id="path6032"
             d="m 108.75136,83.066722 c 1.82707,-1.487889 3.94452,-1.707696 6.1187,-2.056452 2.17417,-0.348753 8.53011,0.113513 7.08312,-0.629518 -2.17079,-1.085678 -4.94795,-1.509305 -7.58257,-1.172006 -2.63462,0.337298 -4.85383,1.388517 -6.00013,3.007749 -0.25313,0.347526 -0.0407,0.821681 0.38088,0.850227 z"
             style="color:#000000;font-style:normal;font-variant:normal;font-weight:normal;font-stretch:normal;font-size:medium;line-height:normal;font-family:sans-serif;font-variant-ligatures:normal;font-variant-position:normal;font-variant-caps:normal;font-variant-numeric:normal;font-variant-alternates:normal;font-feature-settings:normal;text-indent:0;text-align:start;text-decoration:none;text-decoration-line:none;text-decoration-style:solid;text-decoration-color:#000000;letter-spacing:normal;word-spacing:normal;text-transform:none;writing-mode:lr-tb;direction:ltr;text-orientation:mixed;dominant-baseline:auto;baseline-shift:baseline;text-anchor:start;white-space:normal;shape-padding:0;clip-rule:nonzero;display:inline;overflow:visible;visibility:visible;opacity:1;isolation:auto;mix-blend-mode:normal;color-interpolation:sRGB;color-interpolation-filters:linearRGB;solid-color:#000000;solid-opacity:1;vector-effect:none;fill:#c69f52;fill-opacity:1;fill-rule:nonzero;stroke:none;stroke-width:1.09200001;stroke-linecap:round;stroke-linejoin:miter;stroke-miterlimit:4;stroke-dasharray:none;stroke-dashoffset:0;stroke-opacity:1;paint-order:fill markers stroke;color-rendering:auto;image-rendering:auto;shape-rendering:auto;text-rendering:auto;enable-background:accumulate" />
        </g>
        <g
           style="fill:#c69f52;fill-opacity:1"
           id="g5437"
           transform="matrix(-0.6969201,0,0,0.63268424,173.49345,37.652527)" />
      </g>
      <g
         transform="matrix(0.74337451,0,0,0.74337451,29.50617,22.205733)"
         id="g5487">
        <path
           sodipodi:nodetypes="ccssc"
           inkscape:connector-curvature="0"
           id="path5481"
           d="m 90.386422,98.853162 c -3.42131,2.678618 -12.064462,2.092488 -14.57713,-0.403179 -1.469706,-1.443491 -1.615161,-3.65392 -1.16936,-4.842362 0.729364,-1.94438 3.384133,-2.524229 6.953605,-2.702562 7.517511,-0.375579 9.881437,3.816153 8.792885,7.948103 z"
           style="fill:#ffffff;fill-opacity:1;fill-rule:nonzero;stroke:none;stroke-width:4.15143585;stroke-linecap:square;stroke-linejoin:miter;stroke-miterlimit:4;stroke-dasharray:none;stroke-dashoffset:0;stroke-opacity:1;paint-order:fill markers stroke" />
        <circle
           r="4.2758555"
           cy="96.12928"
           cx="82.61142"
           id="circle5483"
           style="fill:#000000;fill-opacity:1;fill-rule:nonzero;stroke:none;stroke-width:4.22074223;stroke-linecap:square;stroke-linejoin:miter;stroke-miterlimit:4;stroke-dasharray:none;stroke-dashoffset:0;stroke-opacity:1;paint-order:fill markers stroke" />
        <circle
           r="1.0158108"
           style="fill:#ffffff;fill-opacity:1;fill-rule:nonzero;stroke:none;stroke-width:1.00271761;stroke-linecap:square;stroke-linejoin:miter;stroke-miterlimit:4;stroke-dasharray:none;stroke-dashoffset:0;stroke-opacity:1;paint-order:fill markers stroke"
           id="circle5485"
           cx="80.867027"
           cy="94.664619" />
      </g>
      <g
         id="g5495"
         transform="matrix(-1,0,0,1,205.19375,-0.83838024)">
        <g
           style="fill:#c69f52;fill-opacity:1"
           id="g5491"
           transform="matrix(0.6969201,0,0,0.63268424,32.935008,37.652527)">
          <path
             style="color:#000000;font-style:normal;font-variant:normal;font-weight:normal;font-stretch:normal;font-size:medium;line-height:normal;font-family:sans-serif;font-variant-ligatures:normal;font-variant-position:normal;font-variant-caps:normal;font-variant-numeric:normal;font-variant-alternates:normal;font-feature-settings:normal;text-indent:0;text-align:start;text-decoration:none;text-decoration-line:none;text-decoration-style:solid;text-decoration-color:#000000;letter-spacing:normal;word-spacing:normal;text-transform:none;writing-mode:lr-tb;direction:ltr;text-orientation:mixed;dominant-baseline:auto;baseline-shift:baseline;text-anchor:start;white-space:normal;shape-padding:0;clip-rule:nonzero;display:inline;overflow:visible;visibility:visible;opacity:1;isolation:auto;mix-blend-mode:normal;color-interpolation:sRGB;color-interpolation-filters:linearRGB;solid-color:#000000;solid-opacity:1;vector-effect:none;fill:#c69f52;fill-opacity:1;fill-rule:nonzero;stroke:none;stroke-width:1.09200001;stroke-linecap:round;stroke-linejoin:miter;stroke-miterlimit:4;stroke-dasharray:none;stroke-dashoffset:0;stroke-opacity:1;paint-order:fill markers stroke;color-rendering:auto;image-rendering:auto;shape-rendering:auto;text-rendering:auto;enable-background:accumulate"
             d="m 108.75136,83.066722 c 1.82707,-1.487889 3.94452,-1.707696 6.1187,-2.056452 2.17417,-0.348753 8.53011,0.113513 7.08312,-0.629518 -2.17079,-1.085678 -4.94795,-1.509305 -7.58257,-1.172006 -2.63462,0.337298 -4.85383,1.388517 -6.00013,3.007749 -0.25313,0.347526 -0.0407,0.821681 0.38088,0.850227 z"
             id="path5489"
             inkscape:connector-curvature="0"
             sodipodi:nodetypes="czcscc" />
        </g>
        <g
           transform="matrix(-0.6969201,0,0,0.63268424,173.49345,37.652527)"
           id="g5493"
           style="fill:#c69f52;fill-opacity:1" />
      </g>
      <g
         id="g5479">
        <circle
           style="opacity:1;vector-effect:none;fill:#ebffff;fill-opacity:0.47058824;stroke:none;stroke-width:0.88303792;stroke-linecap:round;stroke-linejoin:round;stroke-miterlimit:4;stroke-dasharray:2.64911378, 2.64911378;stroke-dashoffset:0;stroke-opacity:1;paint-order:stroke fill markers"
           id="path5406"
           cx="90.476143"
           cy="95.963516"
           r="6.6628528" />
        <g
           id="g5369"
           transform="matrix(0.85395866,-0.12998477,0.12998477,0.85395866,-92.765312,60.917687)">
          <path
             sodipodi:nodetypes="ccsssc"
             inkscape:connector-curvature="0"
             id="path5349"
             d="m 195.05364,80.896149 c -0.0936,1.646313 0.50097,4.780268 -1.36509,5.886459 -2.73151,1.512303 -6.10338,1.142164 -7.09467,0.499995 -1.75661,-1.137947 -2.20945,-3.470148 -2.5907,-6.386454 -0.42296,-3.235367 2.47373,-5.907997 5.52523,-5.907998 3.0515,10e-7 5.52523,2.645102 5.52523,5.907998 z"
             style="opacity:1;vector-effect:none;fill:#ffe0c3;fill-opacity:1;stroke:none;stroke-width:0.80647892;stroke-linecap:round;stroke-linejoin:round;stroke-miterlimit:4;stroke-dasharray:2.41943682, 2.41943682;stroke-dashoffset:0;stroke-opacity:1;paint-order:stroke fill markers" />
          <path
             style="color:#000000;font-style:normal;font-variant:normal;font-weight:normal;font-stretch:normal;font-size:medium;line-height:normal;font-family:sans-serif;font-variant-ligatures:normal;font-variant-position:normal;font-variant-caps:normal;font-variant-numeric:normal;font-variant-alternates:normal;font-feature-settings:normal;text-indent:0;text-align:start;text-decoration:none;text-decoration-line:none;text-decoration-style:solid;text-decoration-color:#000000;letter-spacing:normal;word-spacing:normal;text-transform:none;writing-mode:lr-tb;direction:ltr;text-orientation:mixed;dominant-baseline:auto;baseline-shift:baseline;text-anchor:start;white-space:normal;shape-padding:0;clip-rule:nonzero;display:inline;overflow:visible;visibility:visible;opacity:0.98999999;isolation:auto;mix-blend-mode:normal;color-interpolation:sRGB;color-interpolation-filters:linearRGB;solid-color:#000000;solid-opacity:1;vector-effect:none;fill:#536367;fill-opacity:1;fill-rule:nonzero;stroke:none;stroke-width:4.74763012;stroke-linecap:round;stroke-linejoin:bevel;stroke-miterlimit:4;stroke-dasharray:none;stroke-dashoffset:0;stroke-opacity:1;paint-order:normal;color-rendering:auto;image-rendering:auto;shape-rendering:auto;text-rendering:auto;enable-background:accumulate"
             d="m 212.24044,64.961588 c 2.71926,4.709872 1.09318,10.778455 -3.6167,13.497705 -4.09072,2.36178 -9.20551,1.44481 -12.26138,-1.92283 -0.0266,0.0169 -0.0534,0.0337 -0.0811,0.0496 l -11.35181,6.55397 c -1.02202,0.59006 -2.31036,0.25882 -2.88855,-0.74263 -0.57819,-1.00145 -0.22081,-2.2827 0.80113,-2.87278 l 11.35186,-6.55396 c 0.0275,-0.0159 0.0555,-0.0308 0.0833,-0.0453 -1.38862,-4.330245 0.37483,-9.218209 4.46564,-11.580032 4.70986,-2.719245 10.77822,-1.093578 13.49747,3.616294 z m -2.70881,1.563943 c -1.87404,-3.245938 -5.97878,-4.345464 -9.22472,-2.471415 -3.24594,1.874041 -4.34569,5.978375 -2.47165,9.224317 1.87405,3.24593 5.97862,4.34609 9.22459,2.4719 3.24592,-1.87404 4.34585,-5.979009 2.47181,-9.224942 z"
             id="path973"
             inkscape:connector-curvature="0" />
          <ellipse
             transform="rotate(-29.767423)"
             ry="3.9019594"
             rx="5.1424665"
             style="opacity:1;vector-effect:none;fill:#f1d4b8;fill-opacity:1;stroke:none;stroke-width:0.63230222;stroke-linecap:round;stroke-linejoin:round;stroke-miterlimit:4;stroke-dasharray:1.89690668, 1.89690668;stroke-dashoffset:0;stroke-opacity:1;paint-order:stroke fill markers"
             id="circle5351"
             cx="123.86208"
             cy="163.68105" />
          <path
             sodipodi:nodetypes="cccccccccccccccccc"
             inkscape:connector-curvature="0"
             id="path4778"
             d="m 188.30169,72.569407 c -0.61306,0.03165 -1.29955,0.311644 -1.54795,0.718973 -0.26511,0.437417 -0.18196,0.689147 0.0701,1.385271 -0.21896,0.08063 -0.40248,0.207613 -0.54519,0.377238 -0.29944,0.362024 -0.76645,0.72232 -0.66577,1.372954 -1.01206,-0.381973 -1.49837,-0.109468 -1.95009,0.431586 -0.0633,0.07883 -0.1178,0.166172 -0.1633,0.261483 -0.55306,-0.320805 -1.04729,-0.307063 -1.39371,0.03876 -0.85895,0.01304 -0.45289,1.437243 0.64516,4.412517 1.03431,2.082414 2.43312,2.352744 3.23567,1.549797 0.37623,-0.397682 0.15114,-0.760592 -0.0991,-1.167238 1.50832,1.072647 1.62634,1.805937 2.96293,1.106434 1.20163,-0.452241 0.67623,-1.714722 0.35,-2.094703 1.01221,0.382225 1.58894,1.282747 2.49192,0.696664 1.74121,-0.657924 0.27613,-1.905881 -0.11584,-2.932229 0.45929,0.229367 1.56494,0.872262 2.12182,0.0033 0.68103,-1.115886 -0.19145,-3.263598 -2.17136,-4.741463 -1.18346,-0.88343 -2.22098,-1.471007 -3.22525,-1.419339 z"
             style="opacity:1;vector-effect:none;fill:#ffe0c3;fill-opacity:1;stroke:none;stroke-width:0.63720983;stroke-linecap:round;stroke-linejoin:round;stroke-miterlimit:4;stroke-dasharray:1.91162959, 1.91162959;stroke-dashoffset:0;stroke-opacity:1;paint-order:stroke fill markers" />
          <path
             sodipodi:nodetypes="cscsc"
             inkscape:connector-curvature="0"
             id="ellipse5359"
             d="m 195.31765,76.945621 c 1.07982,0.654272 1.13065,2.332042 -0.10378,4.409914 -1.23442,2.077873 -3.02003,3.100576 -3.60651,2.882823 -1.07981,-0.654271 -0.75875,-2.05661 0.47567,-4.134482 1.23442,-2.077873 2.15479,-3.812522 3.23462,-3.158255 z"
             style="opacity:1;vector-effect:none;fill:#ffe0c3;fill-opacity:1;stroke:none;stroke-width:0.6206876;stroke-linecap:round;stroke-linejoin:round;stroke-miterlimit:4;stroke-dasharray:1.86206289, 1.86206289;stroke-dashoffset:0;stroke-opacity:1;paint-order:stroke fill markers" />
        </g>
      </g>
    </g>
    <path
       style="opacity:1;vector-effect:none;fill:#ffffff;fill-opacity:1;stroke:none;stroke-width:0.21775879;stroke-linecap:round;stroke-linejoin:round;stroke-miterlimit:4;stroke-dasharray:0.65327632, 0.65327632;stroke-dashoffset:0;stroke-opacity:1;paint-order:stroke fill markers"
       d="m 266.10993,114.55077 a 7.1191983,7.1191983 0 0 0 -5.8725,3.09501 7.1191983,7.1191983 0 0 0 -3.54353,-0.95161 7.1191983,7.1191983 0 0 0 -7.11915,7.11917 7.1191983,7.1191983 0 0 0 -7.11914,7.11916 7.1191983,7.1191983 0 0 0 1.5119,4.38249 7.1191983,7.1191983 0 0 0 -1.66509,4.57422 7.1191983,7.1191983 0 0 0 7.11943,7.11914 7.1191983,7.1191983 0 0 0 1.86034,-0.24978 7.1191983,7.1191983 0 0 0 6.10099,3.46473 7.1191983,7.1191983 0 0 0 5.28216,-2.35787 7.1191983,7.1191983 0 0 0 5.28159,2.35787 7.1191983,7.1191983 0 0 0 6.57169,-4.38659 7.1191983,7.1191983 0 0 0 1.84896,0.25301 7.1191983,7.1191983 0 0 0 7.11359,-7.00855 7.1191983,7.1191983 0 0 0 3.98621,-6.38785 7.1191983,7.1191983 0 0 0 -5.67845,-6.97032 7.1191983,7.1191983 0 0 0 -7.10542,-6.73223 7.1191983,7.1191983 0 0 0 -1.88661,0.25534 7.1191983,7.1191983 0 0 0 -6.68697,-4.69534 z m 13.03193,13.5873 h 1.97677 v 7.69898 h -1.97677 z m -28.33213,0.26496 h 2.03395 l 4.0536,10.53514 h -2.08413 l -0.8235,-2.16995 h -4.29699 l -0.8597,2.16995 h -2.08386 z m 7.64178,0 h 2.03395 v 3.97483 h 3.52341 v -3.97483 h 2.02696 v 10.53514 h -2.02696 v -4.61944 h -3.52341 v 4.61944 h -2.03395 z m 13.18485,0 h 2.03396 l 4.05361,10.53514 h -2.08415 l -0.82379,-2.16995 H 270.519 l -0.85941,2.16995 h -2.08415 z m -19.79536,2.79326 -1.40364,3.61678 h 2.80027 z m 20.82664,0 -1.40365,3.61678 h 2.80028 z m 7.46261,5.49315 c 0.339,0 0.62767,0.11934 0.86641,0.35807 0.2435,0.23873 0.36535,0.52741 0.36535,0.8664 0,0.33422 -0.12185,0.62318 -0.36535,0.86669 -0.23874,0.23873 -0.52741,0.35804 -0.86641,0.35804 -0.33899,0 -0.62799,-0.11931 -0.8667,-0.35804 -0.23872,-0.23872 -0.35804,-0.5277 -0.35804,-0.86669 0,-0.33899 0.11932,-0.62767 0.35804,-0.8664 0.23871,-0.23873 0.52771,-0.35807 0.8667,-0.35807 z"
       id="path5623"
       inkscape:connector-curvature="0" />
    <circle
       style="opacity:1;vector-effect:none;fill:#ffffff;fill-opacity:1;stroke:none;stroke-width:0.28640571;stroke-linecap:round;stroke-linejoin:round;stroke-miterlimit:4;stroke-dasharray:0.85921702, 0.85921702;stroke-dashoffset:0;stroke-opacity:1;paint-order:stroke fill markers"
       id="path5646"
       cx="241.33116"
       cy="153.15947"
       r="4.2286663" />
    <circle
       r="2.9197934"
       cy="162.88885"
       cx="236.70082"
       id="circle5648"
       style="opacity:1;vector-effect:none;fill:#ffffff;fill-opacity:1;stroke:none;stroke-width:0.19775631;stroke-linecap:round;stroke-linejoin:round;stroke-miterlimit:4;stroke-dasharray:0.59326887, 0.59326887;stroke-dashoffset:0;stroke-opacity:1;paint-order:stroke fill markers" />
    <circle
       style="opacity:1;vector-effect:none;fill:#ffffff;fill-opacity:1;stroke:none;stroke-width:0.15684122;stroke-linecap:round;stroke-linejoin:round;stroke-miterlimit:4;stroke-dasharray:0.4705236, 0.4705236;stroke-dashoffset:0;stroke-opacity:1;paint-order:stroke fill markers"
       id="circle5650"
       cx="240.9624"
       cy="172.83803"
       r="2.3156981" />
  </g>
</svg>
