<?xml version="1.0" encoding="UTF-8" standalone="no"?>
<!-- Created with Inkscape (http://www.inkscape.org/) -->

<svg
   xmlns:dc="http://purl.org/dc/elements/1.1/"
   xmlns:cc="http://creativecommons.org/ns#"
   xmlns:rdf="http://www.w3.org/1999/02/22-rdf-syntax-ns#"
   xmlns:svg="http://www.w3.org/2000/svg"
   xmlns="http://www.w3.org/2000/svg"
   xmlns:sodipodi="http://sodipodi.sourceforge.net/DTD/sodipodi-0.dtd"
   xmlns:inkscape="http://www.inkscape.org/namespaces/inkscape"
   width="166.74072mm"
   height="200.25948mm"
   viewBox="0 0 166.74072 200.25949"
   version="1.1"
   id="svg8"
   inkscape:version="0.92.4 (5da689c313, 2019-01-14)"
   sodipodi:docname="notepad.svg">
  <defs
     id="defs2" />
  <sodipodi:namedview
     id="base"
     pagecolor="#ffffff"
     bordercolor="#666666"
     borderopacity="1.0"
     inkscape:pageopacity="0.0"
     inkscape:pageshadow="2"
     inkscape:zoom="1.0873497"
     inkscape:cx="315.10058"
     inkscape:cy="378.4431"
     inkscape:document-units="mm"
     inkscape:current-layer="layer1"
     showgrid="false"
     inkscape:window-width="1920"
     inkscape:window-height="1046"
     inkscape:window-x="-11"
     inkscape:window-y="-11"
     inkscape:window-maximized="1"
     inkscape:snap-bbox="true"
     inkscape:bbox-paths="true"
     inkscape:bbox-nodes="true"
     inkscape:snap-bbox-edge-midpoints="true"
     inkscape:snap-bbox-midpoints="true"
     inkscape:snap-intersection-paths="true"
     inkscape:snap-smooth-nodes="true"
     inkscape:object-paths="true"
     inkscape:snap-midpoints="true"
     inkscape:snap-object-midpoints="true"
     inkscape:snap-center="true"
     inkscape:snap-page="true"
     inkscape:snap-global="false" />
  <metadata
     id="metadata5">
    <rdf:RDF>
      <cc:Work
         rdf:about="">
        <dc:format>image/svg+xml</dc:format>
        <dc:type
           rdf:resource="http://purl.org/dc/dcmitype/StillImage" />
        <dc:title />
      </cc:Work>
    </rdf:RDF>
  </metadata>
  <g
     inkscape:label="Layer 1"
     inkscape:groupmode="layer"
     id="layer1"
     transform="translate(35.392537,25.955439)">
    <path
       style="opacity:1;vector-effect:none;fill:#815e59;fill-opacity:1;stroke:none;stroke-width:2.74351048;stroke-linecap:round;stroke-linejoin:round;stroke-miterlimit:4;stroke-dasharray:8.23053101, 8.23053101;stroke-dashoffset:0;stroke-opacity:1;paint-order:stroke fill markers"
       d="m 52.517578,42.269531 c -10.644248,0 -19.214844,8.568643 -19.214844,19.212891 V 763.48047 c 0,10.64425 8.570596,19.21484 19.214844,19.21484 H 644.29102 c 10.64424,0 19.21289,-8.57059 19.21289,-19.21484 V 61.482422 c 0,-10.644248 -8.56865,-19.212891 -19.21289,-19.212891 z M 102.25781,81.4375 c 10.96471,2.06e-4 19.85331,8.888807 19.85352,19.85352 8.7e-4,10.96547 -8.88805,19.85525 -19.85352,19.85546 -10.965468,-2.1e-4 -19.854381,-8.89 -19.853513,-19.85546 2.08e-4,-10.964711 8.888806,-19.85331 19.853513,-19.85352 z m 70.32813,0 c 10.96471,2.11e-4 19.8533,8.88881 19.85351,19.85352 8.7e-4,10.96546 -8.88804,19.85525 -19.85351,19.85546 -10.96547,-2.1e-4 -19.85439,-8.88999 -19.85352,-19.85546 2.1e-4,-10.964713 8.88881,-19.853314 19.85352,-19.85352 z m 70.32617,0 c 10.96547,-8.71e-4 19.85526,8.888045 19.85547,19.85352 8.7e-4,10.96623 -8.88924,19.85633 -19.85547,19.85546 -10.96547,-2.1e-4 -19.85439,-8.88999 -19.85352,-19.85546 2.1e-4,-10.964713 8.88881,-19.853314 19.85352,-19.85352 z m 70.32812,0 c 10.96471,2.06e-4 19.85331,8.888807 19.85352,19.85352 8.7e-4,10.96547 -8.88805,19.85525 -19.85352,19.85546 -10.96547,-2.1e-4 -19.85438,-8.89 -19.85351,-19.85546 2.1e-4,-10.96471 8.8888,-19.853309 19.85351,-19.85352 z m 70.32813,0 c 10.96471,2.06e-4 19.85331,8.888807 19.85352,19.85352 8.7e-4,10.96547 -8.88805,19.85525 -19.85352,19.85546 -10.96623,8.7e-4 -19.85634,-8.88923 -19.85547,-19.85546 2.1e-4,-10.965475 8.89,-19.854391 19.85547,-19.85352 z m 70.32617,0 c 10.96471,2.06e-4 19.85331,8.888807 19.85352,19.85352 8.7e-4,10.96547 -8.88805,19.85525 -19.85352,19.85546 -10.96547,-2.1e-4 -19.85438,-8.89 -19.85351,-19.85546 2.1e-4,-10.96471 8.8888,-19.853309 19.85351,-19.85352 z m 70.32813,0 c 10.96471,2.11e-4 19.8533,8.88881 19.85351,19.85352 8.7e-4,10.96546 -8.88804,19.85525 -19.85351,19.85546 -10.96547,-2.1e-4 -19.85439,-8.88999 -19.85352,-19.85546 2.1e-4,-10.964713 8.88881,-19.853314 19.85352,-19.85352 z m 70.32617,0 c 10.96547,-8.71e-4 19.85526,8.888045 19.85547,19.85352 8.7e-4,10.96623 -8.88924,19.85633 -19.85547,19.85546 -10.96547,-2.1e-4 -19.85439,-8.88999 -19.85352,-19.85546 2.1e-4,-10.964713 8.88881,-19.853314 19.85352,-19.85352 z"
       transform="matrix(0.26458333,0,0,0.26458333,-44.203885,-32.78409)"
       id="rect894"
       inkscape:connector-curvature="0"
       sodipodi:nodetypes="ssssssssscccccccccccccccccccccccccccccccccccccccc" />
    <path
       style="opacity:1;vector-effect:none;fill:#ede5ce;fill-opacity:1;stroke:none;stroke-width:2.57347941;stroke-linecap:round;stroke-linejoin:round;stroke-miterlimit:4;stroke-dasharray:7.72043792, 7.72043792;stroke-dashoffset:0;stroke-opacity:1;paint-order:stroke fill markers"
       d="m 78.726562,68.269531 c -9.552479,0 -17.24414,-12.310292 -17.24414,-2.757812 V 733.42969 c 0,9.55248 7.691661,17.24219 17.24414,17.24219 H 618.08203 c 9.55248,-10e-6 17.24219,-7.68971 17.24219,-17.24219 V 65.511719 c 0,-9.55248 -7.68971,2.757812 -17.24219,2.757812 z M 102.25781,69.4375 c 10.96471,2.06e-4 19.85331,8.888807 19.85352,19.853516 8.7e-4,10.965474 -8.88805,19.855264 -19.85352,19.855464 C 91.292341,109.14627 82.403427,100.25649 82.404297,89.291016 82.404505,78.326309 91.293103,69.43771 102.25781,69.4375 Z m 70.32813,0 c 10.96471,2.11e-4 19.8533,8.88881 19.85351,19.853516 8.7e-4,10.965464 -8.88804,19.855254 -19.85351,19.855464 -10.96547,-2e-4 -19.85439,-8.88999 -19.85352,-19.855464 2.1e-4,-10.964709 8.88881,-19.85331 19.85352,-19.853516 z m 70.32617,0 c 10.96547,-8.71e-4 19.85526,8.888045 19.85547,19.853516 8.7e-4,10.966234 -8.88924,19.856344 -19.85547,19.855464 -10.96547,-2e-4 -19.85439,-8.88999 -19.85352,-19.855464 2.1e-4,-10.964709 8.88881,-19.85331 19.85352,-19.853516 z m 70.32812,0 c 10.96471,2.06e-4 19.85331,8.888807 19.85352,19.853516 8.7e-4,10.965474 -8.88805,19.855264 -19.85352,19.855464 -10.96547,-2.1e-4 -19.85438,-8.89 -19.85351,-19.855464 2.1e-4,-10.964706 8.8888,-19.853305 19.85351,-19.853516 z m 70.32813,0 c 10.96471,2.06e-4 19.85331,8.888807 19.85352,19.853516 8.7e-4,10.965474 -8.88805,19.855264 -19.85352,19.855464 -10.96623,8.8e-4 -19.85634,-8.88923 -19.85547,-19.855464 2.1e-4,-10.965471 8.89,-19.854387 19.85547,-19.853516 z m 70.32617,0 c 10.96471,2.06e-4 19.85331,8.888807 19.85352,19.853516 8.7e-4,10.965474 -8.88805,19.855264 -19.85352,19.855464 -10.96547,-2.1e-4 -19.85438,-8.89 -19.85351,-19.855464 2.1e-4,-10.964706 8.8888,-19.853305 19.85351,-19.853516 z m 70.32813,0 c 10.96471,2.11e-4 19.8533,8.88881 19.85351,19.853516 8.7e-4,10.965464 -8.88804,19.855254 -19.85351,19.855464 -10.96547,-2e-4 -19.85439,-8.88999 -19.85352,-19.855464 2.1e-4,-10.964709 8.88881,-19.85331 19.85352,-19.853516 z m 70.32617,0 c 10.96547,-8.71e-4 19.85526,8.888045 19.85547,19.853516 8.7e-4,10.966234 -8.88924,19.856344 -19.85547,19.855464 -10.96547,-2e-4 -19.85439,-8.88999 -19.85352,-19.855464 2.1e-4,-10.964709 8.88881,-19.85331 19.85352,-19.853516 z"
       transform="matrix(0.26458333,0,0,0.26458333,-44.203885,-32.78409)"
       id="rect934"
       inkscape:connector-curvature="0"
       sodipodi:nodetypes="sssscsssscccccccccccccccccccccccccccccccccccccccc" />
    <path
       style="opacity:1;vector-effect:none;fill:#fff6de;fill-opacity:1;stroke:none;stroke-width:2.57347941;stroke-linecap:round;stroke-linejoin:round;stroke-miterlimit:4;stroke-dasharray:7.72043792, 7.72043792;stroke-dashoffset:0;stroke-opacity:1;paint-order:stroke fill markers"
       d="m 78.726562,42.269531 c -9.552479,0 -17.24414,-0.310292 -17.24414,9.242188 V 723.42969 c 0,9.55248 7.691661,17.24219 17.24414,17.24219 H 618.08203 c 9.55248,-10e-6 17.24219,-7.68971 17.24219,-17.24219 V 51.511719 c 0,-9.55248 -7.68971,-9.242188 -17.24219,-9.242188 z M 102.25781,77.4375 c 10.96471,2.06e-4 19.85331,8.888807 19.85352,19.853516 8.7e-4,10.965474 -8.88805,19.855254 -19.85352,19.855464 -10.965468,-2.1e-4 -19.854381,-8.89 -19.853513,-19.855464 C 82.404505,86.326309 91.293103,77.43771 102.25781,77.4375 Z m 70.32813,0 c 10.96471,2.11e-4 19.8533,8.88881 19.85351,19.853516 8.7e-4,10.965464 -8.88804,19.855254 -19.85351,19.855464 -10.96547,-2.1e-4 -19.85439,-8.88999 -19.85352,-19.855464 2.1e-4,-10.964709 8.88881,-19.85331 19.85352,-19.853516 z m 70.32617,0 c 10.96547,-8.71e-4 19.85526,8.888045 19.85547,19.853516 8.7e-4,10.966234 -8.88924,19.856334 -19.85547,19.855464 -10.96547,-2.1e-4 -19.85439,-8.88999 -19.85352,-19.855464 2.1e-4,-10.964709 8.88881,-19.85331 19.85352,-19.853516 z m 70.32812,0 c 10.96471,2.06e-4 19.85331,8.888807 19.85352,19.853516 8.7e-4,10.965474 -8.88805,19.855254 -19.85352,19.855464 -10.96547,-2.1e-4 -19.85438,-8.89 -19.85351,-19.855464 2.1e-4,-10.964706 8.8888,-19.853305 19.85351,-19.853516 z m 70.32813,0 c 10.96471,2.06e-4 19.85331,8.888807 19.85352,19.853516 8.7e-4,10.965474 -8.88805,19.855254 -19.85352,19.855464 -10.96623,8.7e-4 -19.85634,-8.88923 -19.85547,-19.855464 2.1e-4,-10.965471 8.89,-19.854387 19.85547,-19.853516 z m 70.32617,0 c 10.96471,2.06e-4 19.85331,8.888807 19.85352,19.853516 8.7e-4,10.965474 -8.88805,19.855254 -19.85352,19.855464 -10.96547,-2.1e-4 -19.85438,-8.89 -19.85351,-19.855464 2.1e-4,-10.964706 8.8888,-19.853305 19.85351,-19.853516 z m 70.32813,0 c 10.96471,2.11e-4 19.8533,8.88881 19.85351,19.853516 8.7e-4,10.965464 -8.88804,19.855254 -19.85351,19.855464 -10.96547,-2.1e-4 -19.85439,-8.88999 -19.85352,-19.855464 2.1e-4,-10.964709 8.88881,-19.85331 19.85352,-19.853516 z m 70.32617,0 c 10.96547,-8.71e-4 19.85526,8.888045 19.85547,19.853516 8.7e-4,10.966234 -8.88924,19.856334 -19.85547,19.855464 -10.96547,-2.1e-4 -19.85375,-10.49597 -19.85352,-19.855464 2.3e-4,-9.359038 8.88881,-19.85331 19.85352,-19.853516 z"
       id="rect896"
       inkscape:connector-curvature="0"
       sodipodi:nodetypes="sssscssssccccccccccccccccccccccccccccccccccccccac"
       transform="matrix(0.26458333,0,0,0.26458333,-44.203885,-32.78409)" />
    <g
       id="g967"
       transform="matrix(1,0,0,0.7386947,0,-2.147876)">
      <rect
         ry="1.1060998"
         y="-32.229233"
         x="-20.578325"
         height="23.670534"
         width="2.3723269"
         id="rect957"
         style="opacity:1;vector-effect:none;fill:#6a6a6a;fill-opacity:1;stroke:none;stroke-width:0.49067286;stroke-linecap:round;stroke-linejoin:round;stroke-miterlimit:4;stroke-dasharray:1.47201856, 1.47201856;stroke-dashoffset:0;stroke-opacity:1;paint-order:stroke fill markers" />
      <rect
         style="opacity:1;vector-effect:none;fill:#6a6a6a;fill-opacity:1;stroke:none;stroke-width:0.49067286;stroke-linecap:round;stroke-linejoin:round;stroke-miterlimit:4;stroke-dasharray:1.47201856, 1.47201856;stroke-dashoffset:0;stroke-opacity:1;paint-order:stroke fill markers"
         id="rect963"
         width="2.3723269"
         height="23.670534"
         x="-15.833672"
         y="-32.229233"
         ry="1.1060998" />
    </g>
    <g
       id="g973"
       transform="matrix(1,0,0,0.7386947,130.81687,-1.8975295)">
      <rect
         style="opacity:1;vector-effect:none;fill:#6a6a6a;fill-opacity:1;stroke:none;stroke-width:0.49067286;stroke-linecap:round;stroke-linejoin:round;stroke-miterlimit:4;stroke-dasharray:1.47201856, 1.47201856;stroke-dashoffset:0;stroke-opacity:1;paint-order:stroke fill markers"
         id="rect969"
         width="2.3723269"
         height="23.670534"
         x="-21.086681"
         y="-32.229233"
         ry="1.1060998" />
      <rect
         ry="1.1060998"
         y="-32.229233"
         x="-16.342028"
         height="23.670534"
         width="2.3723269"
         id="rect971"
         style="opacity:1;vector-effect:none;fill:#6a6a6a;fill-opacity:1;stroke:none;stroke-width:0.49067286;stroke-linecap:round;stroke-linejoin:round;stroke-miterlimit:4;stroke-dasharray:1.47201856, 1.47201856;stroke-dashoffset:0;stroke-opacity:1;paint-order:stroke fill markers" />
    </g>
    <g
       transform="matrix(1,0,0,0.7386947,112.20138,-1.8975295)"
       id="g979">
      <rect
         ry="1.1060998"
         y="-32.229233"
         x="-21.086681"
         height="23.670534"
         width="2.3723269"
         id="rect975"
         style="opacity:1;vector-effect:none;fill:#6a6a6a;fill-opacity:1;stroke:none;stroke-width:0.49067286;stroke-linecap:round;stroke-linejoin:round;stroke-miterlimit:4;stroke-dasharray:1.47201856, 1.47201856;stroke-dashoffset:0;stroke-opacity:1;paint-order:stroke fill markers" />
      <rect
         style="opacity:1;vector-effect:none;fill:#6a6a6a;fill-opacity:1;stroke:none;stroke-width:0.49067286;stroke-linecap:round;stroke-linejoin:round;stroke-miterlimit:4;stroke-dasharray:1.47201856, 1.47201856;stroke-dashoffset:0;stroke-opacity:1;paint-order:stroke fill markers"
         id="rect977"
         width="2.3723269"
         height="23.670534"
         x="-16.342028"
         y="-32.229233"
         ry="1.1060998" />
    </g>
    <g
       id="g985"
       transform="matrix(1,0,0,0.7386947,93.585859,-1.8975295)">
      <rect
         style="opacity:1;vector-effect:none;fill:#6a6a6a;fill-opacity:1;stroke:none;stroke-width:0.49067286;stroke-linecap:round;stroke-linejoin:round;stroke-miterlimit:4;stroke-dasharray:1.47201856, 1.47201856;stroke-dashoffset:0;stroke-opacity:1;paint-order:stroke fill markers"
         id="rect981"
         width="2.3723269"
         height="23.670534"
         x="-21.086681"
         y="-32.229233"
         ry="1.1060998" />
      <rect
         ry="1.1060998"
         y="-32.229233"
         x="-16.342028"
         height="23.670534"
         width="2.3723269"
         id="rect983"
         style="opacity:1;vector-effect:none;fill:#6a6a6a;fill-opacity:1;stroke:none;stroke-width:0.49067286;stroke-linecap:round;stroke-linejoin:round;stroke-miterlimit:4;stroke-dasharray:1.47201856, 1.47201856;stroke-dashoffset:0;stroke-opacity:1;paint-order:stroke fill markers" />
    </g>
    <g
       transform="matrix(1,0,0,0.7386947,74.97036,-1.8975295)"
       id="g991">
      <rect
         ry="1.1060998"
         y="-32.229233"
         x="-21.086681"
         height="23.670534"
         width="2.3723269"
         id="rect987"
         style="opacity:1;vector-effect:none;fill:#6a6a6a;fill-opacity:1;stroke:none;stroke-width:0.49067286;stroke-linecap:round;stroke-linejoin:round;stroke-miterlimit:4;stroke-dasharray:1.47201856, 1.47201856;stroke-dashoffset:0;stroke-opacity:1;paint-order:stroke fill markers" />
      <rect
         style="opacity:1;vector-effect:none;fill:#6a6a6a;fill-opacity:1;stroke:none;stroke-width:0.49067286;stroke-linecap:round;stroke-linejoin:round;stroke-miterlimit:4;stroke-dasharray:1.47201856, 1.47201856;stroke-dashoffset:0;stroke-opacity:1;paint-order:stroke fill markers"
         id="rect989"
         width="2.3723269"
         height="23.670534"
         x="-16.342028"
         y="-32.229233"
         ry="1.1060998" />
    </g>
    <g
       id="g997"
       transform="matrix(1,0,0,0.7386947,56.354863,-1.8975295)">
      <rect
         style="opacity:1;vector-effect:none;fill:#6a6a6a;fill-opacity:1;stroke:none;stroke-width:0.49067286;stroke-linecap:round;stroke-linejoin:round;stroke-miterlimit:4;stroke-dasharray:1.47201856, 1.47201856;stroke-dashoffset:0;stroke-opacity:1;paint-order:stroke fill markers"
         id="rect993"
         width="2.3723269"
         height="23.670534"
         x="-21.086681"
         y="-32.229233"
         ry="1.1060998" />
      <rect
         ry="1.1060998"
         y="-32.229233"
         x="-16.342028"
         height="23.670534"
         width="2.3723269"
         id="rect995"
         style="opacity:1;vector-effect:none;fill:#6a6a6a;fill-opacity:1;stroke:none;stroke-width:0.49067286;stroke-linecap:round;stroke-linejoin:round;stroke-miterlimit:4;stroke-dasharray:1.47201856, 1.47201856;stroke-dashoffset:0;stroke-opacity:1;paint-order:stroke fill markers" />
    </g>
    <g
       transform="matrix(1,0,0,0.7386947,37.739357,-1.8975295)"
       id="g1003">
      <rect
         ry="1.1060998"
         y="-32.229233"
         x="-21.086681"
         height="23.670534"
         width="2.3723269"
         id="rect999"
         style="opacity:1;vector-effect:none;fill:#6a6a6a;fill-opacity:1;stroke:none;stroke-width:0.49067286;stroke-linecap:round;stroke-linejoin:round;stroke-miterlimit:4;stroke-dasharray:1.47201856, 1.47201856;stroke-dashoffset:0;stroke-opacity:1;paint-order:stroke fill markers" />
      <rect
         style="opacity:1;vector-effect:none;fill:#6a6a6a;fill-opacity:1;stroke:none;stroke-width:0.49067286;stroke-linecap:round;stroke-linejoin:round;stroke-miterlimit:4;stroke-dasharray:1.47201856, 1.47201856;stroke-dashoffset:0;stroke-opacity:1;paint-order:stroke fill markers"
         id="rect1001"
         width="2.3723269"
         height="23.670534"
         x="-16.342028"
         y="-32.229233"
         ry="1.1060998" />
    </g>
    <g
       id="g1009"
       transform="matrix(1,0,0,0.7386947,19.123859,-1.8975295)">
      <rect
         style="opacity:1;vector-effect:none;fill:#6a6a6a;fill-opacity:1;stroke:none;stroke-width:0.49067286;stroke-linecap:round;stroke-linejoin:round;stroke-miterlimit:4;stroke-dasharray:1.47201856, 1.47201856;stroke-dashoffset:0;stroke-opacity:1;paint-order:stroke fill markers"
         id="rect1005"
         width="2.3723269"
         height="23.670534"
         x="-21.086681"
         y="-32.229233"
         ry="1.1060998" />
      <rect
         ry="1.1060998"
         y="-32.229233"
         x="-16.342028"
         height="23.670534"
         width="2.3723269"
         id="rect1007"
         style="opacity:1;vector-effect:none;fill:#6a6a6a;fill-opacity:1;stroke:none;stroke-width:0.49067286;stroke-linecap:round;stroke-linejoin:round;stroke-miterlimit:4;stroke-dasharray:1.47201856, 1.47201856;stroke-dashoffset:0;stroke-opacity:1;paint-order:stroke fill markers" />
    </g>
    <rect
       style="opacity:1;vector-effect:none;fill:#d8d8d8;fill-opacity:0.52044612;stroke:none;stroke-width:0.28431708;stroke-linecap:round;stroke-linejoin:round;stroke-miterlimit:4;stroke-dasharray:0.85295126, 0.85295126;stroke-dashoffset:0;stroke-opacity:1;paint-order:stroke fill markers"
       id="rect2451"
       width="151.82898"
       height="1.4017193"
       x="-27.936661"
       y="11.397758"
       ry="0" />
    <rect
       ry="0"
       y="25.763891"
       x="-27.936661"
       height="1.4017193"
       width="151.82898"
       id="rect2455"
       style="opacity:1;vector-effect:none;fill:#d8d8d8;fill-opacity:0.52044612;stroke:none;stroke-width:0.28431708;stroke-linecap:round;stroke-linejoin:round;stroke-miterlimit:4;stroke-dasharray:0.85295126, 0.85295126;stroke-dashoffset:0;stroke-opacity:1;paint-order:stroke fill markers" />
    <rect
       style="opacity:1;vector-effect:none;fill:#d8d8d8;fill-opacity:0.52044612;stroke:none;stroke-width:0.28431708;stroke-linecap:round;stroke-linejoin:round;stroke-miterlimit:4;stroke-dasharray:0.85295126, 0.85295126;stroke-dashoffset:0;stroke-opacity:1;paint-order:stroke fill markers"
       id="rect2457"
       width="151.82898"
       height="1.4017193"
       x="-27.936661"
       y="40.130035"
       ry="0" />
    <rect
       ry="0"
       y="54.496166"
       x="-27.936661"
       height="1.4017193"
       width="151.82898"
       id="rect2459"
       style="opacity:1;vector-effect:none;fill:#d8d8d8;fill-opacity:0.52044612;stroke:none;stroke-width:0.28431708;stroke-linecap:round;stroke-linejoin:round;stroke-miterlimit:4;stroke-dasharray:0.85295126, 0.85295126;stroke-dashoffset:0;stroke-opacity:1;paint-order:stroke fill markers" />
    <rect
       style="opacity:1;vector-effect:none;fill:#d8d8d8;fill-opacity:0.52044612;stroke:none;stroke-width:0.28431708;stroke-linecap:round;stroke-linejoin:round;stroke-miterlimit:4;stroke-dasharray:0.85295126, 0.85295126;stroke-dashoffset:0;stroke-opacity:1;paint-order:stroke fill markers"
       id="rect2461"
       width="151.82898"
       height="1.4017193"
       x="-27.936661"
       y="68.862297"
       ry="0" />
    <rect
       ry="0"
       y="83.228424"
       x="-27.936661"
       height="1.4017193"
       width="151.82898"
       id="rect2463"
       style="opacity:1;vector-effect:none;fill:#d8d8d8;fill-opacity:0.52044612;stroke:none;stroke-width:0.28431708;stroke-linecap:round;stroke-linejoin:round;stroke-miterlimit:4;stroke-dasharray:0.85295126, 0.85295126;stroke-dashoffset:0;stroke-opacity:1;paint-order:stroke fill markers" />
    <rect
       style="opacity:1;vector-effect:none;fill:#d8d8d8;fill-opacity:0.52044612;stroke:none;stroke-width:0.28431708;stroke-linecap:round;stroke-linejoin:round;stroke-miterlimit:4;stroke-dasharray:0.85295126, 0.85295126;stroke-dashoffset:0;stroke-opacity:1;paint-order:stroke fill markers"
       id="rect2465"
       width="151.82898"
       height="1.4017193"
       x="-27.936661"
       y="97.594551"
       ry="0" />
    <rect
       ry="0"
       y="111.96068"
       x="-27.936661"
       height="1.4017193"
       width="151.82898"
       id="rect2467"
       style="opacity:1;vector-effect:none;fill:#d8d8d8;fill-opacity:0.52044612;stroke:none;stroke-width:0.28431708;stroke-linecap:round;stroke-linejoin:round;stroke-miterlimit:4;stroke-dasharray:0.85295126, 0.85295126;stroke-dashoffset:0;stroke-opacity:1;paint-order:stroke fill markers" />
    <rect
       style="opacity:1;vector-effect:none;fill:#d8d8d8;fill-opacity:0.52044612;stroke:none;stroke-width:0.28431708;stroke-linecap:round;stroke-linejoin:round;stroke-miterlimit:4;stroke-dasharray:0.85295126, 0.85295126;stroke-dashoffset:0;stroke-opacity:1;paint-order:stroke fill markers"
       id="rect2469"
       width="151.82898"
       height="1.4017193"
       x="-27.936661"
       y="126.32682"
       ry="0" />
    <rect
       ry="0"
       y="140.69295"
       x="-27.936661"
       height="1.4017193"
       width="151.82898"
       id="rect2471"
       style="opacity:1;vector-effect:none;fill:#d8d8d8;fill-opacity:0.52044612;stroke:none;stroke-width:0.28431708;stroke-linecap:round;stroke-linejoin:round;stroke-miterlimit:4;stroke-dasharray:0.85295126, 0.85295126;stroke-dashoffset:0;stroke-opacity:1;paint-order:stroke fill markers" />
  </g>
</svg>
